<?xml version="1.0" encoding="iso-8859-1"?>
<!-- Generator: Adobe Illustrator 26.0.2, SVG Export Plug-In . SVG Version: 6.00 Build 0)  -->
<svg version="1.2" baseProfile="tiny" xmlns="http://www.w3.org/2000/svg" xmlns:xlink="http://www.w3.org/1999/xlink" x="0px"
	 y="0px" width="800px" height="800px" viewBox="0 0 800 800" overflow="visible" xml:space="preserve">
<g id="scan" display="none">
	<image display="inline" width="800" height="800" xlink:href="../images/012f.png" >
	</image>
</g>
<g id="icons">
	<g id="mouse">
		<g id="template_00000008124865646632461780000008309000562641382327_">
			<g>
				<rect y="0" fill="#FFC20E" width="800" height="800"/>
				<rect x="100" y="250" fill="#ED1C24" width="150" height="300"/>
				<rect x="550" y="250" fill="#ED1C24" width="150" height="300"/>
				<g>
					<rect x="125" y="125" fill="none" width="100" height="550"/>
					<path d="M153.2,211.2c0.2,3.6,1.1,15.1,14.6,15.1c9.1,0,14.6-6.6,14.6-15.4c0-16.7-16-16.7-27.9-16.7v-19
						c11.3-0.3,28-0.6,28-16.8c0-8.9-6.6-13.4-13.9-13.4c-7,0-13.8,4.7-13.8,14.1H130c0.5-5,1-12.2,6.6-19.1
						c7.5-9.1,19.4-12.5,31.4-12.5c28.8,0,38.1,18.5,38.1,30.8c0,19-16.7,24.1-21.7,25.6c3.6,1.1,8.3,2.6,13.4,7
						c7.9,6.6,9.2,14.9,9.2,20.3c0,19.1-17.5,33.4-41,33.4c-8.1,0-19.9-1.8-27.2-7.6c-10-8.3-10.4-21.1-10.4-25.6H153.2z"/>
					<path d="M129.1,363.1l29.3-26.7c5.2-4.7,11-9.9,17-17.2c6.3-7.6,7.8-11.2,7.8-16.4c0-8.6-5-14.4-13.4-14.4
						c-13,0-14.1,13.3-14.3,16.5h-24.8c0-4.5,0-13,6.6-21.2c6.5-8.1,18.5-12.3,32.2-12.3c24.6,0,38.2,13.3,38.2,30.8
						c0,11.7-4.5,26.7-53.5,66.1c16.4-0.3,18.3-0.5,31.1-0.6c17.3-0.3,19.3-0.3,23-0.5V386h-79.4V363.1z"/>
					<path d="M140.4,433.9c10.5-4.5,20.6-10.2,30-17h20.9V530h-24.5v-88c-4.7,3.6-14.1,9.4-26.4,14.4V433.9z"/>
					<path d="M170.5,559.3c15.9,0,25.3,8.6,29.5,14.9c5.8,8.6,10.2,19.6,10.2,40.8c0,26.2-6,60.8-40,60.8c-29,0-39-27.9-39-58
						C131.2,602.7,134.2,559.3,170.5,559.3z M183,591.2c-0.6-3.1-3.4-13.1-12.3-13.1c-7,0-10,6.3-11.2,9.7
						c-3.7,11.5-3.7,28.8-3.7,31.6c0,19.3,2.9,37.3,15.1,37.3c13,0,15.1-22,15.1-37.6C185.9,611.9,185.1,598.6,183,591.2z"/>
				</g>
				<g>
					<rect x="575" y="125" fill="none" width="100" height="550"/>
					<path d="M603.2,355.2c0.2,3.6,1.1,15.1,14.6,15.1c9.1,0,14.6-6.6,14.6-15.4c0-16.7-16-16.7-27.9-16.7v-19
						c11.3-0.3,28-0.6,28-16.8c0-8.9-6.6-13.4-13.9-13.4c-7,0-13.8,4.7-13.8,14.1H580c0.5-5,1-12.2,6.6-19.1
						c7.5-9.1,19.4-12.5,31.4-12.5c28.8,0,38.1,18.5,38.1,30.8c0,19-16.7,24.1-21.7,25.6c3.6,1.1,8.3,2.6,13.4,7
						c7.9,6.6,9.2,14.9,9.2,20.3c0,19.1-17.5,33.4-41,33.4c-8.1,0-19.9-1.8-27.2-7.6c-10-8.3-10.4-21.1-10.4-25.6H603.2z"/>
					<path d="M603.2,499.2c0.2,3.6,1.1,15.1,14.6,15.1c9.1,0,14.6-6.6,14.6-15.4c0-16.7-16-16.7-27.9-16.7v-19
						c11.3-0.3,28-0.6,28-16.8c0-8.9-6.6-13.4-13.9-13.4c-7,0-13.8,4.7-13.8,14.1H580c0.5-5,1-12.2,6.6-19.1
						c7.5-9.1,19.4-12.5,31.4-12.5c28.8,0,38.1,18.5,38.1,30.8c0,19-16.7,24.1-21.7,25.6c3.6,1.1,8.3,2.6,13.4,7
						c7.9,6.6,9.2,14.9,9.2,20.3c0,19.1-17.5,33.4-41,33.4c-8.1,0-19.9-1.8-27.2-7.6c-10-8.3-10.4-21.1-10.4-25.6H603.2z"/>
					<path d="M590.4,577.9c10.5-4.5,20.6-10.2,30-17h20.9V674h-24.5v-88c-4.7,3.6-14.1,9.4-26.4,14.4V577.9z"/>
				</g>
			</g>
			<g>
				<rect x="125" y="100" fill="none" width="550" height="125"/>
				<path d="M381.6,201.5v-78h26.2l12.2,53h0.2l13-53h25.4v78h-15.9v-60.2h-0.2l-15,60.2h-15.6l-14.3-60.2h-0.2v60.2H381.6z"/>
				<path d="M469.8,173.5c0-14.9,2.2-27.6,22.2-27.6c20.1,0,22.2,12.7,22.2,27.6c0,17.1-2.6,29.1-22.2,29.1
					C472.4,202.6,469.8,190.6,469.8,173.5z M499.1,172.7c0-11.3-0.5-17.1-7-17.1c-6.5,0-7,5.7-7,17.1c0,16.6,1.4,20.2,7,20.2
					C497.7,192.8,499.1,189.3,499.1,172.7z"/>
				<path d="M551.8,196h-0.2c-3,4.9-7.1,6.6-12.9,6.6c-7.2,0-13.6-4.3-13.6-11.9v-43.7h15.2v37.8c0,4.9,0.9,8.4,5.7,8.4
					c4.9,0,5.7-3.6,5.7-8.4v-37.8H567v43.7c0,3.6,0.2,7.2,0.5,10.8h-15.8V196z"/>
				<path d="M591.1,184c-0.1,2.5,0,4.9,0.8,6.6c0.9,1.7,2.5,2.6,5.5,2.6s5.6-1.9,5.6-5.6c0-11.6-26.8-9-26.8-26.4
					c0-11.8,11.7-15.3,21.5-15.3c10.4,0,19.8,5,18.9,16.7h-14.9c0-3.8-0.4-6-1.5-7c-1-1-2.3-1.2-3.9-1.2c-3.3,0-5.2,2.2-5.2,5.8
					c0,8.6,26.8,8.2,26.8,25.7c0,9.5-7.8,16.6-20.4,16.6c-13.3,0-22.1-3.3-21.3-18.6H591.1z"/>
				<path d="M641.1,176.6c0,6.5,0.2,16.2,6.9,16.2c5.4,0,6.5-5.2,6.5-9.7h15.4c-0.2,5.9-2.2,10.8-5.8,14.1c-3.6,3.3-9,5.3-16.1,5.3
					c-19.7,0-22.2-12-22.2-29.1c0-14.9,2.2-27.6,22.2-27.6c20.5,0,22.8,13.3,22.2,30.8H641.1z M655,168.1c0-5.3,0.2-12.9-7-12.9
					c-7,0-6.9,8.2-6.9,12.9H655z"/>
			</g>
		</g>
		<g>
			<g>
				<path fill="#010101" d="M373,297.2c7.2-2.7,15.1-3.3,22.5-5.5c13.8-3.6,27.3,2.8,40.3,6.6c11.9,2.5,16.6,15.1,23.4,23.8
					c3.5,9.9,2.3,21.6-1.9,31.2c-6.4,16-14.5,31.6-17.1,48.8c-1.5,12-6.3,23.6-5.3,35.9c-0.8,12.6,11.7,21.4,22.6,24.8
					c13.1,5.5,27.7,0.8,41.2,3.7c8.7,4.2,18.1,7.3,26,13c1.5,4.5-0.6,8.6-3.9,11.6c-5.5,5-6.8,12.7-7.1,19.8
					c-4.6,1.9-8.8,4.7-11.9,8.6c-11.7,13.4-28.3,20.5-43.5,29.1c-10.2,6.9-20.7,13.2-30.6,20.6c-13.1,10.3-14.3,28.5-13.9,43.8
					c0.7,5.2-3.6,8.5-6.6,12c-2.1-3.2-4.7-6.3-5.8-10c-3.3-11.1-7.6-22.1-9.3-33.6c-1-6.4-6.9-10.5-12-13.5c-8.2-5-18.4-3.1-27-7.1
					c-15.3-6.7-32.4-9.9-45.5-20.8c-13-11.5-27-23.5-32.3-40.6v-3.2c0.8-3,1.8-5.9,2.7-8.9c7.7-0.1,15.4-0.8,23.1-0.3
					c8.7,0.4,16.5,4.7,24.7,7.2c7.6,2.6,15.6,1.1,23.4,1.1c3.6-6.6,8-12.7,10.8-19.7c3.5-7.7,2.3-16.5,5.2-24.4
					c8.5-26.6,25.3-49.3,42.5-70.8c11.1-12.2,22.8-26.5,22.7-43.9c0.5-7.5-5.8-12.7-10.9-17.2c-5.1-4.9-13.1-3.7-19.3-2
					c-14.2,5.4-27.5,12.7-41.6,18.3c-13.9,5.5-25.9,15.6-33.7,28.3c-1.1,4.1-0.5,8.5-0.7,12.7c5.6-0.8,11.1-1.9,16.4-3.8
					c7.5-3.1,15.1,6.2,22.3,1.4c12.5-7.1,23.2-17.5,30.8-29.8c2.6-4.2,8.3-1.5,12.3-2.2c-1.7,8.5-7.7,14.9-12.6,21.7
					c-4.2,5.8-11.6,8.1-15.8,13.8c-2.6,3.3-4.9,6.8-6.9,10.6c-20.4-9.8-44.9,2.9-64.8-8.5c-6.5-3.8-14.4-11.1-10.3-19.4
					c4.3-13.4,16.7-20.7,27.5-28.5C338.2,318.7,354.8,306.6,373,297.2z M448.8,531c-0.8,2.5-1.2,5.1-1.3,7.8
					c9.6-4.6,17.6-11.8,27.4-16.1c9.7-4,17.6-11.9,21.4-21.8c2.4-1.5,4.7-3.2,7.5-4.1c-4.9-0.4-9.8-1.4-14.7-1
					C474.1,505.6,461,517.8,448.8,531z M298.5,512.5c0,2.6,0.1,5.1,0.2,7.7c3.2,1.1,6.9,1.7,9.3,4.3c7.5,7.3,16.8,12.3,26,16.9
					c3.5,1.8,7.7,0.9,11.5,1.3c-0.1-2.6-0.2-5.1-0.3-7.7c-14.1-3.7-24.7-14.2-36.9-21.6C305.1,512.4,301.7,512.8,298.5,512.5z"/>
			</g>
		</g>
	</g>
</g>
<g id="guides">
</g>
<g id="scratch">
</g>
</svg>
