<svg xmlns="http://www.w3.org/2000/svg" baseProfile="tiny" viewBox="0 0 150 150" overflow="visible">
    <path fill="#2e8b57" d="M0 0h150v150H0z" />
    <g fill="#fff">
        <circle cx="19" cy="19" r="10" />
        <path
            d="M66 18.9V32h-1.6V18.9H66zm9.8 0V32h-1.6V18.9h1.6zm9.8 0V32H84V18.9h1.6zM38 77.9h-1.5l-6.3-5.8c-.7-.7-1.4-1.2-1.9-1.7-.5-.4-1.1-.8-1.6-1s-1-.3-1.5-.3c-.6 0-1.1.1-1.6.4-.4.3-.8.7-1 1.2s-.4 1.1-.4 1.7c0 .7.1 1.3.4 1.8s.7.9 1.2 1.2 1.1.4 1.7.4v2c-1 0-1.9-.2-2.7-.7S21.4 76 21 75.2s-.6-1.7-.6-2.7.2-1.9.6-2.7 1-1.4 1.7-1.9c.7-.4 1.5-.7 2.4-.7a6.28 6.28 0 0 1 1.9.3c.6.2 1.3.6 2 1.2s1.7 1.3 2.7 2.3l4.3 4h.1v-8.1H38v11zM20.5 57.2H38v2.1H22.8v.1l2.8 4.3h-2.1l-2.9-4.4v-2.1zM38 51.7l-15.4-7.8h-.1v9h-1.9V41.7h2L38 49.4v2.3zm92 27.9h-1.5l-6.3-5.8c-.7-.7-1.4-1.2-1.9-1.7-.5-.4-1.1-.8-1.6-1s-1-.3-1.5-.3c-.6 0-1.1.1-1.6.4-.4.3-.8.7-1 1.2s-.4 1.1-.4 1.7c0 .7.1 1.3.4 1.8s.7.9 1.2 1.2 1.1.4 1.7.4v2c-1 0-1.9-.2-2.7-.7s-1.4-1.1-1.8-1.9-.6-1.7-.6-2.7.2-1.9.6-2.7 1-1.4 1.7-1.9c.7-.4 1.5-.7 2.4-.7a6.28 6.28 0 0 1 1.9.3c.6.2 1.3.6 2 1.2s1.7 1.3 2.7 2.3l4.2 3.9h.1v-8.1h1.9v11.1zm0-14.9h-17.5v-5.9c0-1.4.2-2.5.7-3.4s1.2-1.5 2-1.9 1.8-.6 2.8-.6 2 .2 2.8.6 1.5 1.1 2 1.9c.5.9.7 2 .7 3.3V63h-1.9v-4.2c0-.9-.2-1.7-.5-2.3s-.8-1-1.3-1.2c-.6-.3-1.2-.4-1.9-.4s-1.3.1-1.9.4a3.04 3.04 0 0 0-1.3 1.2c-.3.6-.5 1.3-.5 2.3v3.7H130v2.2zm0-14.6h-1.5l-9.5-7.4h-.1v7.2H117v-9.8h1.6l9.5 7.2h.1v-7.5h1.9v10.3zM45 34.5h60v45H45v-45zm3 3v39h54v-39H48zm15.5 6.8h22.9c4.2 0 11.4 4 11 12.7.4 8.7-6.8 12.8-11 12.8H63.5c-4.2 0-11.4-4-11-12.8-.4-8.7 6.8-12.7 11-12.7zm0 22.5h22.9c3.7 0 8.5-2.8 8-9.8.4-7-4.3-9.7-8-9.7H63.5c-3.7 0-8.5 2.8-8 9.7-.5 7 4.3 9.8 8 9.8zM20.1 130h-6.8v-26.1l-8.1 2.5v-5.5l14.1-5.1h.7V130zm24.5-11.9H31.4v-5.5h13.2v5.5zM73.2 130H49.8v-4.6l11-11.8c1.5-1.7 2.6-3.1 3.4-4.3s1.1-2.4 1.1-3.5c0-1.5-.4-2.7-1.1-3.6s-1.9-1.3-3.3-1.3c-1.5 0-2.7.5-3.6 1.6s-1.3 2.4-1.3 4.2h-6.8c0-2.1.5-4 1.5-5.7s2.4-3.1 4.2-4 3.9-1.5 6.2-1.5c3.5 0 6.2.8 8.2 2.5s2.9 4.1 2.9 7.1c0 1.7-.4 3.4-1.3 5.2s-2.4 3.8-4.5 6.1l-7.8 8.2h14.7v5.4zm17.6-11.9H77.6v-5.5h13.2v5.5zm21.6 11.9h-6.8v-26.1l-8.1 2.5v-5.5l14.1-5.1h.7V130zm34-14.1c0 4.7-1 8.3-2.9 10.8s-4.8 3.8-8.6 3.8c-3.7 0-6.6-1.2-8.5-3.7s-3-6-3-10.5V110c0-4.8 1-8.4 3-10.9s4.8-3.7 8.5-3.7 6.6 1.2 8.5 3.7 3 6 3 10.5v6.3zm-6.7-6.9c0-2.8-.4-4.9-1.2-6.2s-2-1.9-3.6-1.9-2.8.6-3.5 1.8-1.2 3.1-1.2 5.8v8.3c0 2.8.4 4.9 1.1 6.2s2 2 3.6 2c1.7 0 2.9-.6 3.6-1.9s1.1-3.3 1.1-6V109z" />
    </g>
    <path d="M19 0v150M0 19h150M131 0v150M0 131h150" />
</svg>