<?xml version="1.0" encoding="utf-8"?>
<!-- Generator: Adobe Illustrator 26.0.2, SVG Export Plug-In . SVG Version: 6.00 Build 0)  -->
<svg version="1.2" baseProfile="tiny" id="Layer_1" xmlns="http://www.w3.org/2000/svg"
	xmlns:xlink="http://www.w3.org/1999/xlink" x="0px" y="0px" viewBox="0 0 150 150" overflow="visible"
	xml:space="preserve">
	<rect id="bg" y="0" fill="#2E8B57" width="150" height="150" />
	<circle id="supp" fill="#FFFFFF" cx="19" cy="19" r="10" />
	<g id="top">
		<path fill="#FFFFFF" d="M66,18.9V32h-1.6V18.9H66z" />
		<path fill="#FFFFFF" d="M75.8,18.9V32h-1.6V18.9H75.8z" />
		<path fill="#FFFFFF" d="M85.6,18.9V32H84V18.9H85.6z" />
	</g>
	<g id="left">
		<path fill="#FFFFFF" d="M38,77.9h-1.5l-6.3-5.8c-0.7-0.7-1.4-1.2-1.9-1.7c-0.5-0.4-1.1-0.8-1.6-1c-0.5-0.2-1-0.3-1.5-0.3
		c-0.6,0-1.1,0.1-1.6,0.4c-0.4,0.3-0.8,0.7-1,1.2c-0.2,0.5-0.4,1.1-0.4,1.7c0,0.7,0.1,1.3,0.4,1.8c0.3,0.5,0.7,0.9,1.2,1.2
		c0.5,0.3,1.1,0.4,1.7,0.4v2c-1,0-1.9-0.2-2.7-0.7C22,76.6,21.4,76,21,75.2c-0.4-0.8-0.6-1.7-0.6-2.7c0-1,0.2-1.9,0.6-2.7
		c0.4-0.8,1-1.4,1.7-1.9c0.7-0.4,1.5-0.7,2.4-0.7c0.6,0,1.3,0.1,1.9,0.3c0.6,0.2,1.3,0.6,2,1.2c0.7,0.6,1.7,1.3,2.7,2.3L36,75h0.1
		v-8.1H38V77.9z" />
		<path fill="#FFFFFF" d="M20.5,57.2H38v2.1H22.8v0.1l2.8,4.3h-2.1l-2.9-4.4V57.2z" />
		<path fill="#FFFFFF" d="M38,51.7l-15.4-7.8h-0.1v9h-1.9V41.7h2L38,49.4V51.7z" />
	</g>
	<g id="right">
		<path fill="#FFFFFF" d="M130,79.6h-1.5l-6.3-5.8c-0.7-0.7-1.4-1.2-1.9-1.7c-0.5-0.4-1.1-0.8-1.6-1c-0.5-0.2-1-0.3-1.5-0.3
		c-0.6,0-1.1,0.1-1.6,0.4c-0.4,0.3-0.8,0.7-1,1.2c-0.2,0.5-0.4,1.1-0.4,1.7c0,0.7,0.1,1.3,0.4,1.8c0.3,0.5,0.7,0.9,1.2,1.2
		s1.1,0.4,1.7,0.4v2c-1,0-1.9-0.2-2.7-0.7c-0.8-0.5-1.4-1.1-1.8-1.9c-0.4-0.8-0.6-1.7-0.6-2.7c0-1,0.2-1.9,0.6-2.7
		c0.4-0.8,1-1.4,1.7-1.9c0.7-0.4,1.5-0.7,2.4-0.7c0.6,0,1.3,0.1,1.9,0.3c0.6,0.2,1.3,0.6,2,1.2c0.7,0.6,1.7,1.3,2.7,2.3l4.2,3.9h0.1
		v-8.1h1.9V79.6z" />
		<path fill="#FFFFFF" d="M130,64.7h-17.5v-5.9c0-1.4,0.2-2.5,0.7-3.4c0.5-0.9,1.2-1.5,2-1.9c0.8-0.4,1.8-0.6,2.8-0.6s2,0.2,2.8,0.6
		c0.8,0.4,1.5,1.1,2,1.9c0.5,0.9,0.7,2,0.7,3.3V63h-1.9v-4.2c0-0.9-0.2-1.7-0.5-2.3c-0.3-0.6-0.8-1-1.3-1.2
		c-0.6-0.3-1.2-0.4-1.9-0.4c-0.7,0-1.3,0.1-1.9,0.4c-0.6,0.3-1,0.7-1.3,1.2c-0.3,0.6-0.5,1.3-0.5,2.3v3.7H130V64.7z" />
		<path fill="#FFFFFF" d="M130,50.1h-1.5l-9.5-7.4h-0.1v7.2h-1.9v-9.8h1.6l9.5,7.2h0.1v-7.5h1.9V50.1z" />
	</g>
	<g id="factor">
		<path fill="#FFFFFF" d="M45,34.5h60v45H45V34.5z M48,37.5v39h54v-39H48z M63.5,44.3h22.9c4.2,0,11.4,4,11,12.7
		c0.4,8.7-6.8,12.8-11,12.8H63.5c-4.2,0-11.4-4-11-12.8C52.1,48.3,59.3,44.3,63.5,44.3z M63.5,66.8h22.9c3.7,0,8.5-2.8,8-9.8
		c0.4-7-4.3-9.7-8-9.7H63.5c-3.7,0-8.5,2.8-8,9.7C55,64,59.8,66.8,63.5,66.8z" />
	</g>
	<g id="factorc">
		<path fill="#FFFFFF" d="M20.1,130h-6.8v-26.1l-8.1,2.5v-5.5l14.1-5.1h0.7V130z" />
		<path fill="#FFFFFF" d="M44.6,118.1H31.4v-5.5h13.2V118.1z" />
		<path fill="#FFFFFF" d="M73.2,130H49.8v-4.6l11-11.8c1.5-1.7,2.6-3.1,3.4-4.3s1.1-2.4,1.1-3.5c0-1.5-0.4-2.7-1.1-3.6
		s-1.9-1.3-3.3-1.3c-1.5,0-2.7,0.5-3.6,1.6s-1.3,2.4-1.3,4.2h-6.8c0-2.1,0.5-4,1.5-5.7s2.4-3.1,4.2-4s3.9-1.5,6.2-1.5
		c3.5,0,6.2,0.8,8.2,2.5s2.9,4.1,2.9,7.1c0,1.7-0.4,3.4-1.3,5.2s-2.4,3.8-4.5,6.1l-7.8,8.2h14.7V130z" />
		<path fill="#FFFFFF" d="M90.8,118.1H77.6v-5.5h13.2V118.1z" />
		<path fill="#FFFFFF" d="M112.4,130h-6.8v-26.1l-8.1,2.5v-5.5l14.1-5.1h0.7V130z" />
		<path fill="#FFFFFF"
			d="M146.4,115.9c0,4.7-1,8.3-2.9,10.8s-4.8,3.8-8.6,3.8c-3.7,0-6.6-1.2-8.5-3.7s-3-6-3-10.5V110
		c0-4.8,1-8.4,3-10.9s4.8-3.7,8.5-3.7s6.6,1.2,8.5,3.7s3,6,3,10.5V115.9z M139.7,109c0-2.8-0.4-4.9-1.2-6.2s-2-1.9-3.6-1.9
		c-1.6,0-2.8,0.6-3.5,1.8s-1.2,3.1-1.2,5.8v8.3c0,2.8,0.4,4.9,1.1,6.2s2,2,3.6,2c1.7,0,2.9-0.6,3.6-1.9c0.7-1.3,1.1-3.3,1.1-6V109z" />
	</g>
	<path id="align" d="M19,0v150 M0,19h150 M131,0v150 M0,131h150" />
</svg>