<svg xmlns="http://www.w3.org/2000/svg" baseProfile="tiny" viewBox="0 0 295.798 224.09" overflow="visible" xmlns:v="https://vecta.io/nano"><path d="M125.022 1.842h3.1c-2.24 1.28-4.59 2.42-7.12 3.02 1.2-1.18 2.58-2.14 4.02-3.02zm12.43 3.05l3.8-.77c-.26 2.55-4.33.79-5.51 2.87 4.95.42 10.45-1.28 14.89 1.64-3.181.31-10.332-2.719-12.13.23 13.555.938 26.225 6.392 39.55 8.54l-3.64.91c3.12.678 9.227 4.529 11.24.95-2.39-.34-4.79-.65-7.13-1.25 10.062-9.776 26.66-9.002 39.8-9.012 10.65 4.272 20.07 10.982 29.05 18.012 16.621 17.213 13.274 43.822 17.411 65.7 5.751 14.399 5.947 34.976 23.729 39.71l-2.95.72c1.94 1.27 3.89 2.53 5.91 3.69-1.046 2.449-3.862 1.619-5.55 3.24 2.62-.15 5.62.03 7.02 2.65-1.25-.17-2.48-.38-3.72-.61l-.39 1.69c-1.79-.68-3.6-1.34-5.44-1.86 1.86 1.45 3.98 2.5 6.07 3.58-.98.6-1.93 1.23-2.87 1.88-12.538-7.072-13.688-23.247-20.67-34.69-.37 2.9 1.89 6.96-.87 8.98-1.48-2.45-3.42-4.57-5.65-6.36l4.94.16c-.203-5.936-1.754-11.82-1.65-17.62-1.11-1.06-2.26-2.07-3.4-3.09l3.62.88c-.12-2.4-2.03-3.76-3.69-5.17l2.86.22c-5.067-13.995 4.821-36.805-15.25-31.46.29-4.553 3.863-10.286-3.73-9.11 1.75-1.69 3.5-3.38 5.11-5.21-.03 2.01-.32 4.04.02 6.04l3.91.97-1.48 1.78c1.01.71 2.02 1.43 3 2.2-1.51-.4-2.99-.88-4.46-1.38-.97.84-1.48 1.91-1.54 3.19 3.8-.46 8.05-1.4 11.2 1.45-3.421-9.408-4.803-29.866-17.1-30.63l2.53-.65-1.76-1.88-2.3.5c.303-4.811-6.323-6.169-9.409-8.92-4.481-4.087-9.75-3.99-15.371-2.92 1.73-.9 3.51-1.69 5.26-2.54-6.572-2.698-31.821-.32-36.2 5.58 5.095-1.596 10.333-1.906 15.33-3.76l.14 2.02c2.49-1.15 4.95-2.38 7.54-3.27-1.05 1.1-2.15 2.14-3.25 3.19a89.79 89.79 0 0 0 3.68.34c.42.78.88 1.55 1.34 2.3-5.154 2.988-10.95 1.195-16.65 2.32l1.79 2.24c-11.284.817-21.77-3.496-32.12-7.29 1.92 1.46 4.05 2.63 5.81 4.3-6.44-1.81-12.22-5.34-18.52-7.54l1.97 2.7c-4.1-1.44-7.92-3.56-12.03-4.96l-.79 2.38c5.54 1.4 11.23 2.7 15.95 6.13-1.63-.2-3.23-.58-4.82-.94l.24 2.18c-9.83-6.956-21.331-7.544-32.92-6.97 1.44.48 2.9.89 4.35 1.31-4.05 1.58-9.59-.51-12.47 3.41 4.08-.65 8.14-1.6 12.3-1.62-1.693 2.82-6.7 1.386-9.62 2.82 1.2 2.64 3.67 4.14 6.18 5.36-.78 2.19-1.66 4.35-2.35 6.57 1.14-1.26 2.18-2.6 3.23-3.92 3.35.88 7.13.63 10.22-.94-7.638-2.466-8.913-1.051-15.12-7.28 3.848-.426 6.697.511 9.269 3.341 2.631 1.419 6.271 1.429 7.801 4.399 2.6-.14 5.057-1.031 6.55 1.67l-3.82.35c4.03 2.53 7.23 6.07 10.76 9.21l2.3-1.97c-1.85-1.93-4.1-3.44-5.84-5.49 3.8 1.2 6.3 4.57 9.89 6.13-1.94-4.15-6.69-5.68-9.85-8.72l3.94.81c-3.763-3.66-8.374-5.947-12.59-8.9 10.095.423 17.602 9.313 27.35 9.96.48 1.85 1.08 3.67 1.95 5.38l-2.41-.35c1.88 3.09 5.25 4.91 6.93 8.14l-2.37 1.37-.17-2.67-2.16.03c-1.931-2.429-2.319-6.231-6.06-6 1.99 2.59 4.58 4.83 5.65 8.02-3.36-2.01-6.77-4.63-7.43-8.76l1.96.27c-1.497-2.017-2.636-5.213-5.59-4.54 1.18 1.44 2.39 2.87 3.63 4.27-1.62 1.53-3.73 2.75-4.5 4.95l2.14 1.9c-1.41 2.31-4.13 1.46-6.36 1.32.58 2.39 3.28 2.02 5.16 2.51l.31 3.28c-2.08-2.01-4.05-4.19-6.84-5.22-1.15 1.37-2.26 2.78-3.22 4.3 1.35.97 3.01.63 4.56.58-1.92.96-3.87 1.87-5.82 2.76l1.1-1.68c-1.63-2.04-2.61-4.46-3.23-6.98.86 1.34 1.65 2.71 2.47 4.08l2.18-1.74-1.8-2.62 6.25.17c-.16-3.05-4.15-4.21-6.25-6.09-1.43.47-2.82 1.07-4.2 1.67.5-1.35 1.04-2.67 1.58-4l-3.63-2.16 2.06 3.45-3.47-.14.04-4.31c-.64 3.73-3.8 5.9-5.65 8.97l3.3-.55c-6.289 3.397-1.552 8.746-4.76 13.23 1.28.9.57 2.25.13 3.39-1.936-4.036-5.823-2.82-8.14.26l1.35 1.9c-4.058-.722-6.279-1.326-5.77 3.79l2.05-2.11c.11 2.3-1.17 4.01-2.96 5.27a120.65 120.65 0 0 1 4.95-1.02c-1.562 2.404-3.375 2.955-6.13 2.42l1.92 3.4c.9-.84 1.83-1.67 2.93-2.24l2.19 1.72-3.09.62c1.94 1.66 4.44 2.6 5.94 4.87l-3.1-.06c1.174 1.427 2.003 2.856 1.58 4.76l2.8-.37.33-4.66c2.4 2.29.16 4.79-1.52 6.62l2.66.77c-.12 2.24-.96 4.33-2.19 6.19.8.84 1.62 1.65 2.48 2.44l3.31-1.69-.04 5.89 2.84 1.52c-.51-1.48-1.06-2.95-1.6-4.41l4.08 2.55 1.7-1.79c2.45.91 4.1 2.95 5.23 5.23-.95-.47-1.87-.98-2.8-1.48l-1.39 1.64-2.17-2.19c.27 1.89.46 3.79.72 5.68l2.01-2.75 1.61 3.15c3.592-3.89 2.415-7.37-.8-11.06 2.61.91 5.06 2.2 7.4 3.68-1.38.44-2.95.7-3.61 2.17 1.77-.04 3.54-.15 5.31-.2-.31 1-.84 1.9-1.39 2.78l1.25 1.89c-1.935-.386-3.278-1.127-3.84-3.11l-2.13 2c.85 1.81 1.49 3.7 2.1 5.6-3.21 1.08-6.18 2.68-8.77 4.87-1.68-1.55.2-3.08 1.02-4.49l-2.1-.48c1.11-.64 2.23-1.24 3.35-1.86l-2.65-2.01-.11 2.28c-4.78 1.61-9.81 3.23-14.93 2.72-.09-.33-.29-.99-.39-1.32 3.09.02 6.19-.01 9.24-.55-3.54-1.49-7.54-.93-11.29-.97l.42 2.91c-1.19-.06-2.37-.1-3.56-.1l2.68-3.54-1.17-2.2c1.18-.98 2.34-1.99 3.48-3.02-.51 1.62-1.02 3.25-1.13 4.96l11.44-.07c-2.4-1.05-5.14-.67-7.67-1.25-.91-2.51-1.98-4.95-3.01-7.41l-1.48 3.4c-.33-1.81-.61-3.63-.73-5.47l-3.04-1.76-.44 3.28 2.54-1.47c0 1.35-.03 2.7-.07 4.05-2.27-1.53-4.19-3.48-6.19-5.31 1.832 2.446.158 4.71-.67 7.25-3.971-8.544 1.799-6.744 4.15-12.95-.01 1.6.59 2.61 1.82 3.05.57-2.11-.48-3.89-1.94-5.3 1.37.37 2.8.49 4.22.41 2.65.171 4.004 2.532 5.42-1.08-6.273-4.572-13.507-12.233-9.19-20.35l-5.01-.05c.83-.36 1.67-.71 2.52-1.04l-.2-2 3.18.62c-1.54-1.12-3.11-2.17-4.61-3.32 1.66 0 3.33.07 5 0l-3.15-1.97 6.3.22.83-2.22c3.759-.735 7.493-.72 8.38-5.13-2.59 2.02-5.36 4.39-8.91 3.98l.02-2.54c3.5-1.34 7.31-2.22 10.17-4.78-3.65 2.05-7.81 2.94-11.88 3.75 2.24-2.97 6.76-1.95 9.24-4.75l-1.97-.8c2.23-1.43 4.63-2.75 6.19-4.97-3.71.35-6.6 5.67-10.32 3.04 2.33-2.31 5.36-3.75 7.64-6.12-7.695 1.937-12.01 8.59-14.45 15.65-2.432-11.504 11.149-16.378 19.26-20.45-5.62.52-10.89 2.77-15.84 5.36-3.9 1.93-6.99 5.95-11.73 5.55a93.54 93.54 0 0 0 1.58-3.55c-3.809 2.596-7.722-1.469-9.41 1.46 1.64 2.07 3.39 4.09 4.56 6.47-3.53-2.58-6.62-5.81-10.85-7.29l5.43.31c-1.28-2.81-5.29-.47-7.71-.29l2.73 3.14-4.64-.98c-4.704 5.281.556 13.671-2.24 17.55-1.57-4.41-1.32-9.16-.78-13.74l-3.11 1.08 1.13-2.42c-1.66.59-3.31 1.2-5 1.68 2.87-2.98 7.2-3.69 10.23-6.44-4.98 1.71-10.3 2.58-15.02 4.96 1.5.23 3.01.4 4.52.57-7.15 2.83-13.42 7.47-20.69 10.01a119.39 119.39 0 0 0 1.57-2.95c-14.277 4.56-10.934 7.489-9.6 20.61 6.505-5.357 6.085-7.246 6.03-15.35 3.957 11.484-5.805 14.42-2.78 20.26-3.638 1.75-6.819-1.821-11.45.85 3.475 2.6 5.117 6.757 6.35 10.76 2.529-1.437 3.435-4.676 6.76-4.1-3.057 2.819-1.084 5.991-2.11 9.52l2.98-1.07c-1.88 1.54-4 3.16-3.99 5.84-1.96 1.4-4.68 2.1-5.56 4.58-1.27 2.93-3.21 5.67-6.3 6.85-1.91 1.1-5.6 1.25-4.9 4.31 2.72.85 6.19 4.57 8.5 1.31l-4.28-.05c1.46-2.6 4.55-2.46 7.1-2.99-2.053 8.215-4.849 3.897-9.671 7.299-1.531 2.736-5.443 3.369-5.769 6.621-5.986-4.242-10.307.058-10.93 6.38l3.08-.98-3.35 2.84c1.66 2.93 5.03 3.73 7.78 5.24l.09-4.01 3.03-1.13c-1.11 3.98-4.13 7.91-1.89 12.08 1.57-1.5 2.28-3.58 3.13-5.51l.2 2.33 5.19.29c-.42-2.55-1.72-4.81-2.56-7.23 2 2.81 2.93 6.19 4.62 9.17-2.6-.49-5.21-.89-7.85-1.13v1.94c3.25.87 6.97.59 9.63 2.98-4.66-.48-9.44-2.97-14.02-.72.12-1.28.22-2.56.3-3.84-1.95.72-2.16 2.95-2.78 4.65 6.758 1.419 13.942-.653 19.57 4.491 1.4.999 3.53 1.959 3.25 4.019-2.83-.9-4.64-3.77-7.44-4.92l.15 2.66c-3.972-6.751-12.222-3.184-18.71-5.92 2.89 5.4 10.4 1.14 14.46 5.1-7.122-.273-15.037-3.287-18.06 5.32 11.833-4.187 17.454 3.057 25.44 1.35l-.64 2.02 2.37 1.44c1.495-5.264-3.829-6.405-7.31-8.73 14.601 2.276 3.106 7.465 13.8 13.9-1.308-4.874 3.984-6.734 5.27-10.88-1.12.39-2.23.81-3.33 1.22l-.06 3.23c-.99-1.2-1.84-2.51-2.47-3.94l4.84-2.13a140.78 140.78 0 0 1 2.89 3.49c7.119-2.789-2.578-10.109 2.6-14.36-.05 2.56-2.04 5.58.33 7.63 1.558-.987 1.894-2.46 2.003-4.04-.868-9.22 10.639-9.941 12.677-18.32-1.72.74-3.31 1.74-4.76 2.92l-1.96-3.34c1.61.39 3.22.82 4.85 1.14-.82-1.71-2.32-2.91-3.7-4.16l3.83 1.62c3.968-2.553 1.255-8.327 1.95-12.3 3.3.72 4.17 4.2 5.48 6.82 2.666-.037 4.857-1.533 7.17.49.85-2.23-.61-4.44-1.1-6.59 1.52-.84 3.04-1.7 4.59-2.48-.87 2.98-1.59 6.03-.19 9-5.476 4.676-12.452 4.864-9.09 13.99l-2.98 2.45 1.82 1.79-.46 2.87c-4.52.59-7.74 3.94-10.91 6.89 1.19-.59 2.34-1.28 3.46-2.01l1.94 4.14 1.93-3.24-2.37-1.94c1.25-1.38 3.17-1.41 4.73-2.21 2.18-1.44 3.06-4.39 5.76-5.11 3.48-1.07 5.1-4.59 8.05-6.47l-1.19-2.75c1.9-2.79 4.74-4.7 7.78-6.06l-3.15-.89c1.42-.38 2.8.17 4.17.47.24 1.52.48 3.04.8 4.55 1.35-1.79 2.29-3.84 3.48-5.74-.47 1.58-1 3.15-1.54 4.71l3.74.12-.11-3.39a110.28 110.28 0 0 1 8.52-.68c-1.81.93-3.68 1.76-5.49 2.68 3.6 1.62 6.61-1.7 8.98-3.93-4.586-.025-9.476.336-12.55-3.77 5.43 1.5 12.36 5.39 17.24.73-4.83.94-9.69.52-14.2-1.53 5.157-3.937 13.09-.249 19.13-3.57 3.528 4.298.633 13.645-5.05 7.76a28.85 28.85 0 0 0-4.26 5.22c1.43-1.08 2.79-2.24 4.18-3.37 2.81.96 5.54 2.11 8.3 3.2-1.05-.73-2.14-1.41-3.22-2.08.49-1.2 1.26-2.26 2.02-3.3 2.19 4.4 5.79 8.92 11.3 8.4l.51-1.25c-2.508-.195-5.085.154-6.17-2.57 2.76.49 5.57.38 8.36.46-2.48-1.08-5.1-1.88-7.39-3.36l.06-4.13-2.69 2.14.62-2.97c-9.329-8.917-13.181-1.348-22.65-4.18-.04-.38-.1-1.15-.13-1.53 7.671 2.715 17.126-.44 23.09-5.76l1.03 3.79 2.21-.32c-.74 2.38-1.57 4.75-2.21 7.16.9-1.36 1.68-2.79 2.48-4.22l1.26 2c7.037 1.031 4.717 10.161 13.03 11.16l-.89-3c2.83.22 2.78 3.08 3.04 5.21.88-1.7.4-3.54.15-5.32.47-1.7 3.47-2.82 4.1-.58l-3.23.57c10.142 6.51.094 9.69 2.83 18.66l-1.8-.33c1.47 3.22-.36 6.36-.85 9.48.76 4-1.63 7.46-2.54 11.19l1.96 2.16c.95-1.067 2.93-1.776 2.26-3.43 1.53.82 3.06 1.63 4.66 2.31-1.65-1.99-3.52-3.8-4.81-6.06 3.44 1.35 6.48 3.52 8.97 6.23-.9-3.08-1.92-6.15-4.02-8.65 2.21.3 4.4.76 6.59 1.22-1.91-1.75-4.19-2.95-6.84-2.23l2.44-2.04c1.9 1.09 3.76 2.24 5.71 3.24-.88-1.37-1.83-2.7-2.72-4.05 1.75.77 3.47 1.63 5.27 2.29-2.02-2.51-4.86-4.15-7.7-5.56l-.02 2.92-2.11-1.64c.97-2.54 1.51-5.25.72-7.92-1.42-.08-3.82 1.26-4.06-.94 1.54-.18 3.08-.28 4.62-.41-.82-1.04-1.66-2.05-2.51-3.05 2.25-1.17 4.7-.44 7.08-.21-1.26-1.27-2.55-2.5-3.84-3.73 1.12-1.16 2.17-2.37 3.22-3.59 1.414 4.514 3.757 6.389 8.75 7.18-1.59-1.94-3.93-2.94-5.96-4.31l1.4-1.05c-3.86-2.74-7.33-7.01-6.08-12.05 2.476 1.25 1.644 3.854 1.72 6.19 2.21-.82 4.25.13 5.87 1.66l-3.8-.03c.76 2.88 4.2 3.57 6.53 4.81-1.23-2.68-2.26-5.45-3-8.31l2.52 1.23a122.26 122.26 0 0 0-.04 3.31c1.36-1.14 3.12-2.06 3.96-3.69-.17-5.443 2.266-14.692 9.21-13.26-.88-2.37-3.33-1.06-5.07-.72 2.544-3.829 1.033-8.415 2.48-12.31.07 1.93.01 3.86-.07 5.78l.98-.1-.04-5.37 3.25-.22c-1.28-.58-2.57-1.16-3.82-1.81 2.17-.44 4.45.04 6.56-.75-1.53-.61-3.1-1.09-4.68-1.51-.236-4.047 2.973-6.226 6.79-5.85l-1.86 2.1 1.89.99c-1.83-.12-3.66-.19-5.49-.16l.18 1.54c8.541-.058 17.334-1.546 25.89-2.68-4.29 3.24-10.25.77-14.7 3.56-2.31 1.48-5.09 1.43-7.72 1.7l-1.05 3.36 4.76-.1-2.47 2.04 3.51 1.35c-5.144 7.252-1.549 7.441 4.98 4.56l-2.01 2.75c2.38-.09 4.74.05 7.1.35-2.578-4.656-6.6-4.004-11.25-3.44 4.01-3.19 9.88-1.17 14.32-3.61 1.621-3.395 4.563-4.598 8.17-4.98-2.16 1.46-4.72 2.24-6.69 3.99h3.2a53.27 53.27 0 0 0-2.01 2.54c2.17-.47 4.2-1.4 6.12-2.53l-1.5-1.93c3-.38 5.98-.93 8.84-1.99-2.98 2.73-8.03 3.58-8.83 8.17 2.53-.81 4.36-2.73 6-4.72 1.666 7.259-13.195 5.551-15.81 11.64 7.28-2.84 14.59-5.83 21.05-10.31-3.264 4.973-15.669 10.806-21.53 10.9l-1.5 2.4c3.68-.4 7.68-.48 9.94-3.94.01 1.48.45 2.82 1.54 3.84-2.24 1.07-4.58 1.97-6.66 3.35l3.97-.16c-1.86 1.39-3.79 2.9-6.2 3.09l1.89-2.66-4.35.58c1.35-.94 2.74-1.86 3.93-3-5.749 1.197-3.75-2.37-7.59-2.981-1.85.051-3.96.301-5.32-1.269 2.75-.33 5.56-.32 8.23-1.16-4.32-.8-8.69-2.44-13.15-1.62l-.46 2.6c1.83-.76 3.67-1.5 5.58-2.03-1.74 1.54-3.56 3.04-4.84 5.01l2.04 1.25.83-3.07c2.47 1.48 6.55 1.41 7.97 3.88-2.04-.22-4.08-.48-6.11-.77l-.78 1.53c-2.752-.451-4.581.185-6.22 2.47 4.951-.962 9.744-1.861 14.67-2.26-2.41 1.57-4.75 3.27-6.85 5.25l3.17.71c-.35 1.52-.94 2.97-1.61 4.39 3.21-.79 6.36-2.01 8.94-4.13-2.12.3-4.23.68-6.34 1l3.69-3.31c-1.62.39-3.21.85-4.81 1.3.9-2.052 2.151-3.043 4.41-3.2 2.55 4.782 7.623 1.459 10.96-.88 1.45-2.27 1.93-5.42 4.72-6.51a17.89 17.89 0 0 0-.59 3.17c1.33-.32 2.39-1.23 3.36-2.15-.79-.65-1.71-.99-2.77-1.02 1.78-2.4 4.83-1.83 7.23-2.72 1.24-2.38 2.71-4.51 5.2-5.75l-4.66.27c2.23-2.11 5.72-.71 8.5-1.26l-3.42-2.1c1.93-.29 3.86-.6 5.77-1.03-2.57-.44-5-1.81-7.67-1.24l2.07-2.76c-3.23-1.99-7.38.09-10.92.22l2.77-2.07c-.09-1.22.1-2.41.94-3.36l.33 3.31 1.36-1.31c1.51 1.3 3.29 2.41 5.33 1.51.31-2.39.89-4.73 1.63-7.02l2.68-.65c-1.08 1.76-2.11 3.56-3 5.43 1.85.82 3.59 1.87 5.34 2.89l-2.62-3.55 1.97.16c1.572-2.827.174-4.811-1.45-7.2l3.69-4.09c.37 1.07.49 2.19.65 3.31l1.67-.27c-.27-1.95-.65-3.88-.97-5.82 4.307 4.615-2.889 10.826-.53 17.68.93-.89 1.84-1.81 2.76-2.72l2.69.72c-3.38.82-5.84 3.27-6.88 6.55 2.02 2.38 4.64 4.23 7.79 4.69-2.33.75-4.56 1.81-6.42 3.43 1.43-.23 2.85-.51 4.27-.79 2.62 2.77 3.15 6.8 6.04 9.42 1.72.4 4.3-.61 5.26 1.32l-7.9-.38c2.561 3.052 8.149 1.885 10.25 6.25-2.18-1.31-4.5-2.29-7.04-2.6-.67 2.95-.91 5.96.18 8.85l2.97-.3.71-2.58c1.26 1.84 2.44 3.74 3.55 5.67l-1.68 1.8-1.6-3.86c-.87 1.98-1.7 3.98-2.4 6.03l3.15 2.01 1.73-2.73.79 2.96-2.67 3.26 4.04-2.22c-.04 2.661-1.813 3.421-4.07 4.21l2.31 2.86-3.5-.73c1.12 1.1 2.24 2.19 3.41 3.24-2.464 3.769 1.092 7.801 1.16 11.93l2.71-2.28c-2.21 3.49-4.826 8.16.21 10.44l-2.83-.05 1.38 4.56c1.41-.85 2.75-1.82 4.05-2.84-.902-1.675-2.445-3.11-1.12-4.96l3.17.44c-2.949-3.394 1.493-7.407-1.42-10.96-.17-2.95.85-5.7 1.42-8.61l-4.02 2.03c2.72-2.33 3.248-5.004 1.39-8.16 2.43-1.34 5.27-2.87 4.55-6.18-1.47 1.55-2.89 3.16-4.6 4.46a94.1 94.1 0 0 1 .03-3.36l-3.01.31c-.51-1.34-1.05-2.66-1.6-3.98 1.13.8 2.32 1.54 3.62 2.04.04-2.58.86-5.03 1.86-7.37l-3.93-4.89-1.42 1.83c-1.79-2.56-3.04-5.67-2.02-8.8 1.65.78 3.29 1.59 4.81 2.62l-4.52-1.07c1.94 2.61 4.09 5.06 6.17 7.56l.89-3.81 1.86 1.21c-1.07 4.91 2.1 8.96 3.36 13.41-.659 14.831-5.879 32.576 4.49 45.09-3.86 4.62-2.45 12.1 2.97 14.86-.76 2.24-1.71 4.41-2.72 6.55-2.88-.28-5.27.93-7.25 2.94-5.44-.46-6.66-6.32-9.91-9.69.89-3.54 1.07-7.19 1.53-10.8-1.79 1.2-3.18 3.77-5.64 3.15 4.485-14.964 3.752-25.099-.283-40.09-4.69-14.452-6.217-32.573-20.637-41.09-5.123 6.232-11.907 10.568-17.651 16.109.097 8.017 11.463 14.12 5.551 21.88-6.58 10.008-13.312 22.815-10.962 35.08 1.091 2.97 2.851 7.58-1.039 9.29-1.39-1.25-2.71-2.55-4.02-3.87-3.2 3.8-4.62 8.84-8.38 12.2-3.164 4.265-23.696 7.195-17.141-1.92 10.947-13.124 18.864-29.386 19.841-46.71.13-5.91-4.25-10.47-7.6-14.86-4.23-.75-8.68.26-13 .24-2.07-.29-2.98 1.82-4.16 3.08l2.67 2.93-2.8-.16-1.13 2.11 1.5 2.71-2.89-.39c.46 1.78.94 3.55 1.53 5.29l-2.78.42c-.53 1.93-.21 3.85.82 5.56-2-.06-3.53.93-4.23 2.79l2.93 1.99-4.22.25c-.27 1.7.07 3.6-.88 5.13-2.41 3.84-1.56 8.65-3.2 12.78-3.191 9.259 2.031 18.797 2.02 27.94-2.25.74-3.46-1.77-5.02-2.87 1.089 6.851-.865 14.605-8.8 15.73l-1.84-3.37-3.23 2.44c-8.086-1.342-.532-12.019-.9-17.24l-5.02.33c4.555-7.858 8.25-16.494 6.719-25.83-.179-14.918 8.207-30.017 3.361-45.04-6.445 2.468-13.124 3.082-19.77 1.1-1.365 11.878 2.807 23.247 2.681 35-5.32 20.932 1.153 17.832.879 33.59l-3.51-.25c-1.541 8.546-5.437 14.202-13.56 17.47l-1.11-3.47c-3.07.57-6.05.2-8.22-2.22 14.39-17.996 12.899-36.829 7.76-58.05l-3.04 1.85c.92-2 3.14-4.39 1.15-6.47-1.85-2.18-1.97-4.89-2.34-7.53-2.92-2.82-2.28-7.32-2.55-11.01-1.73.66-2.89 2.15-4.2 3.37l1.24-3.77c-5.03.53-10.42 1.29-14.4 4.7.88 1.3 1.8 2.57 2.72 3.85-1.6-.59-3.62-3.28-4.96-1.01 1.69 3.16 4.1 6.12 4.12 9.89-1.32-2.99-2.18-6.39-4.94-8.45-2.76 1.68-5.41 3.53-8.09 5.33l1.8 2.11c-1.66-.24-3.41-.74-5.02.02 2.67 1.81 6.22 3.27 6.39 7.01-1.91-2.31-3.89-4.97-7.23-4.9-1.22 2.05.82 3.53 1.86 5.09l-3.64-2.04c-1.164 1.216-2.109 2.284-1.66 4.06-3.381-1.097-12.808 10.362-11.12 1.84-1.47 1.18-3.03 2.23-4.64 3.2 1.429-.156 2.791-.152 3.62 1.2-11.157 6.63-15.414 10.996-29.2 9.75-.01-2.16 2.27-2.98 3.66-4.2l2.28 1.98-.77-4.29-2.63-.59-.63 3.29-1.32.19-.06-3.47c-1.2.58-2.39 1.16-3.62 1.68l.69-3.72c-1.72 1.96-4.27 1.57-6.6 1.49 1.657 2.657 6.104 1.76 8.08 4.85l-.52 2.23c-7.185-3.564-16.296-8.013-18.57-16.33l4.79-3.59c-2.307-9.367-12.458-15.629-12.94-25.2 4.86-.58 6.18 6.11 10.71 6.46-.15-2.66.25-5.71-2.05-7.6-6.915-7.508-8.949-22.846-1.24-30.24-2.87 6.87-3.76 14.39-2.22 21.7l1.26-1.37c1.04 1.52 2.12 3.01 3.27 4.45l-2.93-.03c1.16 2.12 2.73 3.96 4.51 5.58 1.451-6.55-3.583-9.351-4-15.34 5.967 5.799 2.63 11.844 14.79 9.65-.76-3.73-5.2-3.97-7.55-6.34 3.82.75 6.92 3.19 9.43 6.05a99.66 99.66 0 0 0 2.62-2.41c-7.083-13.717 8.997-7.898 9.93-20.24l-3.54.95c1.55-1.21 3.08-2.48 4.33-4.01-1.91.29-3.78.72-5.68 1.04 2.23-1.2 4.77-1.92 6.6-3.77-1.58.07-3.15.21-4.72.35 1.64-.74 3.28-1.52 4.85-2.41-.02-5.65-6.56-8.84-6.11-14.54 11.882-6.593 5.671-7.411 6.53-18.39-2.71.97-5.32 2.22-8.09 3.02 2.4-2.62 6.17-3.04 8.87-5.22-5.3.21-9.8 3.37-14.68 5.07 4.052-5.062 11.392-4.727 16.2-8.15-6.17.08-11.7 3.1-17.48 4.85 3.26-2.41 7.24-3.48 10.71-5.52a67.95 67.95 0 0 0-4.21-1.77c4.63.46 9.28.15 13.92.25-.78-2.55-4.23-1.37-6.21-2.2 3.85-1.39 7.97 2.4 11.42-.05-11.948-7.214-6.055-13.274-14.23-16.74 1.97.2 3.95.45 5.93.58-.99-1.3-2.06-2.56-3.14-3.79l3.52 1.03c-1.24-1.92-2.75-3.64-4.24-5.36l4.41 2.24c.2-2.69-2.27-4.16-3.82-5.95 1.54.78 3.09 1.54 4.72 2.11-.37-2.98-2.71-5.02-4.34-7.35l2.97 1.87 3.07-1.91c6.317 4.857 10.064 12.28 14.93 18.48 2.81-.2 5.64-.28 8.43-.73-2.41-1.47-5.34-1.27-8.03-1.67.302-2.31 3.889-.948 5.41-.77-1.941-.877-3.961-1.484-5.98-2.14h6.92c-2.4-1.74-5.31-2.4-8-3.52 6.295 1.483 15.37-4.739 17.18 4.74l2.05.7c-1.122-7.559-7.992-10.343-14.36-6.61 1.8-1.39 3.58-2.8 5.33-4.25-2.38-2.12-5.16-3.75-7.41-6.02 4.58 1.27 7.81 4.92 11.64 7.49-.4-1.4-1.86-2.92-.7-4.35-.86-.93-1.73-1.83-2.55-2.79 4.33 1.13 6.29 5.62 9.7 8.15-.6 1.66-1.87 4.21.08 5.44 1.08-1.4.37-3.16.32-4.74.84 1.06 1.66 2.14 2.48 3.23 2.58-2.58 2.94-7.17 6.8-8.31-1.03 1.95-2.26 3.79-3.28 5.74 3.57-1.04 4.66-4.8 6.15-7.77l-3.86 1.75c1.32-3.89 3.68-8.35 7.93-9.51-1.55 2.48-3.38 4.78-4.7 7.4l3.85-1.4c-1.66 2.37-3.23 4.83-4.1 7.62 2.81-.64 3.7-3.6 5.38-5.56 3.26-4.58 8.19-7.68 13.41-9.58-4.39 4.48-11.67 6.51-13.26 13.28 6.73-4.87 12.14-12.89 21.19-13.37-1.73.9-3.52 1.66-5.3 2.45l2.14 1.2-2.04 1.47c6.13-1.52 12.5-3.2 18.8-1.6l-.21-2.63c-3.92-.02-7.72 1.36-11.66 1 5.291-3.389 11.541.001 17.141-1.819zm-20.29 5.61c-3.26 1.23-7.46 1.64-9.06 5.21 9.094-5.409 19.391-4.381 29.51-3.82l.06-1.18c-6.7-1.53-13.83-1.98-20.51-.21zm-12.77 3.11c-.37 1.1-.7 2.22-.99 3.34 1.63-.68 3.24-1.49 4.36-2.92-1.06-.31-2.43-1.69-3.37-.42zm-58.9 2.28c2.923 8.232 11.416 14.121 12.211 22.939 1.141 6.863-5.746 4.584-9.701 2.901 3.059 6.686 12.04 3.285 14.69-2-5.021-8.187-10.382-17.146-17.2-23.84zm56.38.06c-1.12.16-2.61 1.51-2 2.7 1.3.67 3.72-2.03 2-2.7zm-3.27 3.83c-.55 2.11 2.59 1.47 3.78 1.42 1.6-1.47 3.4-2.62 5.63-2.78l.09-2.71c-3.23 1.37-5.65 4.62-9.5 4.07zm98.38-3.65c-1.17-.1-2.16.25-2.95 1.04.12 2.09 5.35.07 2.95-1.04zm2.85 2.11c.24 1.52 2.76.68 3.85.89 6.367-.399-2.163-2.263-3.85-.89zm-12.21 1.01l-.26.97c3.2-.04 6.41-.17 9.62-.26l-.08-1.34c-3.11-.15-6.22.06-9.28.63zm-90.76.73c-1.06.19-2.59 1.36-1.99 2.56 1.29.86 3.96-2.03 1.99-2.56zm-4.11 1.19c-1.27-.08-2.33 2.39-.56 2.38 1.14-.01 2.26-2.37.56-2.38zm6.18 1.36c1.723 3.816 10.725.082 16.39 3.74l-.36-2.53c-5.25-1.11-10.67-1.38-16.03-1.21zm-26.24 2.43l.7.74c-.331-.377-2.024-2.082-.7-.74zm16.76-.71v2.42c5.28-1.02 10.9-1.17 15.85 1.23a124.09 124.09 0 0 0-.46 3.37c1.7-1.73 3.32-3.63 5.66-4.48l-.06 3.89-2-2.04c-.55 1.26-1.07 2.53-1.41 3.87l-2.22-.7.39 2.51c-.98-.72-1.94-1.48-2.89-2.24l-1.95.88c6.666 8.602 18.894-8.321 5.64-7.95l-.03 1.88c-5.13-2.68-10.96-1.99-16.52-2.64zm-21.51.77c-.05 1.26 2.27 2.25 3.36 1.72.43-1.62-2.21-2.47-3.36-1.72zm17.41 7.07c1.16-.39 3.13 0 3.1-1.75-3-.5-1.25-3.92-1.62-5.97-2.18 1.6-1.02 5.26-1.48 7.72zm-37.66-6.51c.24 2.21.06 4.52 1.05 6.59l.65-.86.33 2.77c-1.5-1.13-2.77-2.55-4.43-3.46 1.211 4.936 6.455 5.59 9.29 9.15-2.05-.43-4.13-.57-6.15.07 1.45 1.9 3.96 2.46 6.21 2.7 3.348-6.466-2.492-12.717-6.95-16.96zm35.17.55c.37 2.32-1.19 6.06 1.85 6.88.16-2.42-.14-4.83-.42-7.23l-1.43.35zm8.01 1.93c1.08 3.37 4.53 3.4 7.53 3.01l.9 1.93c.92-1.04 1.85-2.1 3.13-2.7l-2.86-.4c.61-.93 1.61-1.38 3-1.37-3.73-1.7-7.94-2.68-11.7-.47zm22.28.67c-.6.8-.73 2.22-.16 3.05 1.98.47 2.35-3.77.16-3.05zm-38.09 5.02l2.27.79 2.2-2.61-2.03-.9c-1.04.69-1.82 1.66-2.44 2.72zm5.7-2.58c-.37 1.47.12 2.03 1.46 1.67.37-1.43-.12-1.98-1.46-1.67zm-19.52 2.66l.83 1.52c2.54 0 6.11-.77 7.67-2.76-2.84-.01-6.04-.46-8.5 1.24zm21.84 1.01c2.18 0 4.35-.17 6.52-.37-1.36-2.85-5-1.72-6.52.37zm-15.1 2.46l1.47 1.37c-1.78.34-3.68.58-4.97 2.01 3.07-.4 6.06-1.19 9.03-2.04-.94-.69-2.06-1.03-3.11-1.47l3.54-.22-.02-3.15c-2.03 1.08-4 2.27-5.94 3.5zm24.22-3.84c2.15 2.07 5.75 2.01 8.6 2.61-1.42-2.84-5.83-2.17-8.6-2.61zm-13.21 1.47c-.94.51-3.14.37-3.11 1.81 1.84 1.329 8.798-2.869 3.11-1.81zm-24.72 15.24c3.88-2.294 11.632-4.623 13.29-8.44-5.32 1.2-10.11 3.94-13.29 8.44zm-10.43 36.8c-1.14.05-2.15 2.43-.55 2.49 1.17-.05 2.28-2.44.55-2.49zm74.11 1.03c-1.3 1.45 1.27 2.52 2.09 1.19 1.34-1.47-1.27-2.71-2.09-1.19zm-.27 5.03l.9 2.72c1.31-.89 2.87-1.49 3.9-2.74-.68-.8-1.34-1.62-1.98-2.46-.93.85-1.86 1.68-2.82 2.48zm6.14.02c-1.89 1.25-.54 4.28 1.37 4.45-.26-1.31.28-4.1-1.37-4.45zm2.73 3.58c.25 1.47.52 2.94.87 4.39l3.2-4.23-4.07-.16zm58.1 4.41c-.37 1.27-.5 2.57-.37 3.9l3.23-.14-2.06-2.49 2.49.23c0-2.01-1.93-1.43-3.29-1.5zm4.13.18c-.58 1.57-.01 2.04 1.7 1.42.6-1.59.03-2.06-1.7-1.42zm-53.64 4.31c2.19.31 5.79-.39 4.39-3.43-1.47 1.13-3.61 1.59-4.39 3.43zm102.6-2.48c-.33 1.17.32 2.67 1.2 3.48 1.9-.26.32-3.9-1.2-3.48zm-48.83 1.05c-.08 1.46 2.47 1.33 3.25.56.06-1.44-2.46-1.26-3.25-.56zm13.23 1.67l.12 2.32c2.63.31 7.04-.22 7.77-3.24-2.6.55-5.24.82-7.89.92zm-18.23.2c.26 1.37 1 1.65 2.22.85-.28-1.36-1.02-1.65-2.22-.85zm82.69.21c-.72 1.11.11 2.79 1.14 3.4 1.57-.39.31-3.86-1.14-3.4zm-55.64.58l-1.94 1.48c1.38 2.12 5.95-2.15 1.94-1.48zm-27.92 2.22c.09 1.24 3.32 2.34 3.77.8-.67-1.21-2.66-1.54-3.77-.8zm22.46.12c-.53 1.56.07 2.05 1.81 1.45.52-1.55-.08-2.03-1.81-1.45zm62.45 1.77c-.37 1.39.13 1.91 1.49 1.56.37-1.41-.13-1.94-1.49-1.56zm-65.27 2.33c-.48 1.35.03 1.79 1.51 1.31.45-1.4-.05-1.84-1.51-1.31zm-15.8.94c-.52 1-.78 3.13.57 3.55 1.24-.6 1.13-4.23-.57-3.55zm81.89.82l2.57 4.7c-.44-1.9-.82-3.8-1.17-5.71l-1.4 1.01zm-152.18 4.18c-2.48.04-4.9-.75-7.39-.66 1.639 3.428 7.469.65 10.68 1.791 1.49.339 4-.581 2.87-2.531-2.08.34-4.08 1.05-6.16 1.4zm-44.75.89c1.962 8.15-.519 16.384-6.84 21.94l2.43.89c-1.28.82-2.56 1.64-3.88 2.4l1.74-3.22c-4.24-.6-6.62 4.1-5.84 7.73 12.786-3.193 19.226-18.411 12.39-29.74zm67.03 2.8c-.72.48-1.95 2.38-.56 2.75 1.77.3 2.83-3.58.56-2.75zm38.85.12c.91 1.28 1.71 2.63 1.45 4.28 1.21-.11 1.68-1.15 2.12-2.12l-3.57-2.16zm7.22.07c1.01 1.12 3.93.92 5.54 1.37-.08-2.27-4.04-2.54-5.54-1.37zm-64.78 4.8c.42 2.12-.25 4.09-1.3 5.91l1.13 1.22c.4-1.49.76-3.07 2.35-3.69-.44-1.31-1.37-2.35-2.18-3.44zm65.71.26c-.99.25-2.48 1.33-1.84 2.48 1.61 1.3 4.87-3.05 1.84-2.48zm-182.42.76c.61 3.59 2.74 6.7 5.06 9.43l1.37-2.54c-2.09-2.35-4.19-4.69-6.43-6.89zm209.34 2.64c1.2 1.77 3.41 3.11 3.11 5.55-1.61-.16-1.7-2.18-2.54-3.22-1.13.64-2.2 1.39-3.22 2.19l.23 2.74c-1.95 1.36-4.48.33-6.69.8-.91-1.27-1.86-2.51-2.59-3.88 2.65.87 5.31 1.76 8.1 2.13-1.6-3.538-4.768-1.068-6.49-3.58 3.667-1.572.207-2.759-1.79-3.52.52.97.78 1.99.78 3.05-1.44-.47-2.84-1.04-4.24-1.6l2.32 3.04c-1.5-.26-2.98-.6-4.46-.91l1.48 2.23 3.1-.76c.44 2.83 3.03 4.54 4.72 6.64l1.94-.21.88 1.45c-2.505 1.201-4.186-.19-6.15-1.7.72 1.5 1.58 2.93 2.42 4.37l2.32.18c.25 1.45.43 2.91.45 4.37-1.2-1.08-1.55-3.2-3.32-3.49.31 1.97.73 3.93.78 5.94a83.4 83.4 0 0 0 3.38-1.43c-.88 1.97-.65 4.29 1.34 5.52.35-2.44.21-4.89-.62-7.21 2.723-1.51 4.723-.861 6.68 1.45-.628-5.1-3.745-4.904-7.43-2.59.51-.91 1.04-1.82 1.59-2.71 1.61-.03 3.22.11 4.82.32-.48-1.12-1.38-1.93-2.23-2.76 1.78.16 3.56.26 5.35.22-.79.96-1.6 1.91-2.35 2.91 1.16-.51 2.29-1.09 3.42-1.67.18-1.67.09-3.7 2.06-4.29.328-4.181-5.106-7.469-5.75-11.97-.9.38-1.93 1.32-1.4 2.4zm-96.75-1.68c1.674 2.73-1.302 6.532-3.93 7.76l.05-2.94c-2.66 2.82.51 6.5 2.06 9.08 1.2-1.4 2.43-2.78 3.56-4.24l3.04 2.22c-3.329.138-5.149 2.102-6.52 5.01 1.14-.88 2.23-1.83 3.36-2.71.856 2.8-1.89 4.273-3.41 6.26 1.53-.18 3.03.1 4.51.49-1 1.17-2.11 2.28-2.84 3.65 2.98-1.08 6.19-1.61 8.74.72 2.734-1.408 4.031-3.724.85-5.57l-.41 2.46c-1.655-3.758-2.36-7.611-7.05-8.31 4.28-1.882 6.265-3.045.53-4.93l.79-2.35c-2.32 1.37-3.42 4.69-6.61 4.13.78-3.82 4.64-6.29 5.37-10.04l-2.09-.69zm71.77.26c-1.4.66-1.45 1.32-.15 1.97 1.43-.7 1.48-1.36.15-1.97zm-63.9 4.95c-1.11.55-1.97 1.54-2.92 2.33.45 2.27 5.5-1.4 2.92-2.33zm42.29 3.48c-2.048 2.248-1.779 4.663 1.11 5.77l-1.04-4.04c1.6.79 3.13 1.73 4.64 2.68a42.45 42.45 0 0 1 .16-3.91c-1.47-1.06-3.2-.91-4.87-.5zm31.35-.47c-.34 1.36.21 1.91 1.63 1.67.31-1.36-.23-1.92-1.63-1.67zm-37.06 1.28c-1 1.02.64 2.89 1.82 2.26.71-1-.69-2.78-1.82-2.26zm-86.74 2.7c-1.39.68-1.44 1.33-.15 1.96 1.4-.68 1.45-1.33.15-1.96zm88.36 3.51c-.5 1.4-.02 1.86 1.42 1.38.44-1.41-.03-1.87-1.42-1.38zm2.66-.8c-.45 1.73 1.95 3.18 3.45 2.96-.18-1.29-1.99-3.48-3.45-2.96zm-38.97 1.43c-1.42.08-1.25 2.37.09 2.44 1.61.16 1.33-2.47-.09-2.44zm-69.68 12.53c3.565-1.478 9.874-1.811 11.31-5.59-3.75 1.77-9.6 1.01-11.31 5.59zm60.29-1.13l3.44-.75-2.41 3.14 3.79-1.08c-.44 1.77-1.83 3.05-2.81 4.53l1.92-.31c.11 1.1.32 2.19.66 3.24-1.11 1.23-2.2 2.5-2.35 4.22 2.14.2 4.29.24 6.45.29-.69 2.36-4.23.88-6.17 1.5l.04 3.03 4.2-.53c.45 1.93 1.39 3.86.86 5.88 1.19.22 2.37.47 3.55.74l-.15-2.17c-3.6-.05-2.17-3.89-1.45-5.99.93-1.93-.2-5.1 2.26-5.94a79.89 79.89 0 0 1-1.94-2.19c-1.42.19-2.85.33-4.28.29-1.286-5.567 2.462-5.626 6.71-4.81-1.19-2.49-5.47-.48-5.61-3.43l2.78.1c-2.199-3.187-8.641-4.738-9.49.24zm86.77-2.45l-1.86.03 1.27 2.42c1.38-.48 2.77-.93 4.18-1.31-.21-1.26-1.35-1.96-2.16-2.82l-1.43 1.68zm-76.74.06c-.69 1.02.67 2.94 1.86 2.45.69-1.04-.63-2.93-1.86-2.45zm76.66 4.05l-.86 2.48-2.81-.71c-1.31 1.86-.71 4.01.11 5.93l-1.33 2.04 2.44 1.85c-4.19 1.067-.803 4.19-3.85 4.25-.26-1.85 1.97-4.91-.11-5.76-1.05 2.7-1.92 5.48-2.26 8.37 1.46-.92 3.01-1.64 4.75-1.78l-1.67 3.32c1.46.14 2.74-.73 4.09-1.14-2.151 3.86-5.269 1.511-8.63.97l-.09 2.27c1.68-.01 2.65.6 2.92 1.82-1.72.12-3.44.21-5.16.26.8.71 2.04 1.13 2.24 2.33-1.54-.17-2.62.21-3.22 1.15l5.45-.21a10.6 10.6 0 0 1-3.18 1.52l.37 2.03c-.91 0-3.16-.11-2.15 1.48.31 1.91 3.03.51 4.36.96.08-1.24.14-2.48.17-3.72l3.08.12-1.7-1.61 1.75-1.47-.93-2.68c11.682-2.95 2.25-9.114 7.34-14.57l-2.71-2.88 4.12.72c-1.09-1.31-2.2-2.76-1.36-4.52l2.52.65c-.87-1.48-1.3-4.53-3.69-3.47zm-188.56 1.61c1.26 1.66 3.09 2.71 4.81 3.83.28-2.48-2.94-3.25-4.81-3.83zm35.54.34c-.59 1.72 2.29.87 2.88 2.16 2.42-1.35-1.41-4.41-2.88-2.16zm-29.31 1.08c-1.01 1.99 3.66 2.73 3.98.82-.78-1.22-2.75-1.42-3.98-.82zm188.06-.32c-1.49.84-1.99 2.92-1.93 4.51 1.45-.01 3.86-3.77 1.93-4.51zm-50.01 3.03l.18 2.41a122.3 122.3 0 0 0-3.96-2c.95 1.19 2 2.31 2.79 3.63-2.62.18-5.24.01-7.84-.23l.25-2.76c-3.14-.16-2.16 4.7-2.6 6.85 1.69-.02 1.84-2.34 2.89-3.34 1.47.4 4.65-.71 4.5 1.79l-4.17-.33c.06.95.1 1.91.11 2.87 1.88-.33 5.04.75 4.93-2.14l2.16 1.14c-2.23 4-7.33 1.7-10.68.74.552 3.938 6.801 2.131 9.71 2.9 1.63.58 2.91-.71 4.01-1.72-.49-1.18-.95-2.38-1.36-3.59 1.62-1.09 1.19-3.2 1.43-4.87l-2.35-1.35zm106.06 4.84c-.26 1.4.31 1.93 1.71 1.59.26-1.38-.31-1.91-1.71-1.59zm.61 3.23c-.62 1.67-.12 2.21 1.52 1.62.63-1.65.12-2.19-1.52-1.62zm-138.47.7c-.35 1.17-.6 2.78-.06 3.95 2.4.83 2.42-4.52.06-3.95zm131.53 4.88l2.94-.27 1.25 2.04-4.17-.34c.11 1.18.52 2.29 1.03 3.35l2.86-.82c-1.869 5.157-1.135 7.212 4.49 4.96 1.388-5.14 6.543-9.372-3.37-7.16a118.22 118.22 0 0 0 .09-1.88l4.71.48.09-2.14c-1.57-.4-4.23.42-4-2.04-1.78 1.61-5.74 1.04-5.92 3.82zm-138.67-1.49l-.29 3.79c1.75-.96 1.84-3.53 3.06-5.07-.94.4-1.86.82-2.77 1.28zm28.24-.74c-.775 3.989 2.301 5.6 4.12 8.62l-3.41-.85c-.54 1.55-1.11 3.09-1.79 4.6 1.64.42 3.36 1.32 4.98.33-1.04-1.16-2.38-2.08-3.04-3.52 1.38.68 2.81 2.52 4 .53l2.33 2.03c-.17 1.55-2.21 4.06-.05 4.93l1.62-4.24-2.23-2.64 2.18-.28c-1.11-1.33-2.93-1.53-4.42-2.21l3.19-1.27c-2.18-.77-5.62-.75-6.23-3.5 2.03.71 5.77 3.51 6.65.04-3.24 1.52-5.03-2.05-7.9-2.57zm-27.24 5.58c-1.06.18-2.11 2.29-.65 2.62 1.52.08 3.16-3.45.65-2.62zm86.23-.06c-.14 1.43.03 3.22.79 4.49 1.84-.35 1.04-4.61-.79-4.49zm-81.34.93c-.28 1.41.26 1.99 1.63 1.74.24-1.4-.3-1.98-1.63-1.74zm-4.32 2.91l3.37-.46a113.1 113.1 0 0 1-2.21 2.7 90.4 90.4 0 0 0 3.68.51l.86-2.21c-1.896-1.092-4.371-3.577-5.7-.54zm-2.13 2.26c.57 2.06 1.44 4.36 3.6 5.22a72.53 72.53 0 0 0-1.17-3.52l2.83-.19c-1.49-1.16-3.51-1.08-5.26-1.51zm149.32-.16c-.92 1.55-.81 3.38-.96 5.1 1.36-1.08 2.09-3.79.96-5.1zm-121.86 3.56l-1.34 1.87c1.87.36 5.31-1.5 5.56 1.3-2.243-.994-3.484.631-5.12 1.96 1.81 2.69 5.45 2.22 8.25 2.24l-.24 1.31c-2.3.17-4.59-.2-6.88-.32 1.43 1.22 2.92 2.37 4.49 3.42-.27-2.77 3.22-1.65 4.89-2.5-.57-.87-1.16-1.72-1.75-2.56 1.07-.49 2.13-1 3.18-1.52 1.51 1.94 1.84 4.55 3.55 6.36-1.25-3.01-1.06-6.84-3.15-9.35l-.29 2.26c-2.39.73-4.9.76-7.37.91l-.14-1.16 4.63.27c.72-2.94-1.79-2.42-3.78-2.25 1.3-.55 2.86-.96 2.69-2.71-2.38.38-4.78.42-7.18.47zm-23.23.85c-.41 1.39.1 1.92 1.54 1.59.37-1.37-.14-1.9-1.54-1.59zm57.16 6.39c2.91-.24 4.49-3.16 5.59-5.55-3.02 0-4.62 3.09-5.59 5.55zm88.1-4.87c1.66 1.93 1.63 4.45 1.5 6.85a41.68 41.68 0 0 1 2.44-.64c.49-2.5-.2-8.62-3.94-6.21zm-151.11 2.22c2.43 2.13 5.69 2.5 8.79 2.69-1.43-2.91-6.33-.14-6.85-3.45l3.76.4.13-.81c-1.08-.29-2.14-.61-3.19-.96-.9.68-1.78 1.4-2.64 2.13zm68.45 2.59l3.71-.07.63-1.96c1.38-.25 2.76-.43 4.15-.62-2.24-3.68-7.66-.42-8.49 2.65zm75.84-1.37c.714 2.168 1.236 6.845 3.39 2.54l1.52 2.48c1.51-2.98 1.43-6.67-1.29-8.93a29.8 29.8 0 0 0-3.62 3.91zm-118.27-.15c-1.38.68-1.44 1.34-.18 1.99 1.36-.7 1.42-1.37.18-1.99zm-26.3 1.01c-.04 3.09 4.15 2.09 6.19 2.84-.36 1.36-2.18 1.09-3.19 1.69l4.56.15c-.3 1.05-.97 1.87-2.02 2.45l2.34 2.53c-.672-1.874-.766-3.392.64-4.94-1.424-3.691-5.453-3.014-8.52-4.72zm-.24 2.48c.272 1.531-.34 2.627-1.61 3.45 1.58 1.5 3.67 1.01 5.6.72-1.29-1.43-2.42-3.02-3.99-4.17zm38.28 2.38c-1.41 3.09 3.27.32 0 0-.59-.78-.59-.78 0 0zm-7.73-.15c-.46 1.26 1.5 2.43 2.54 1.85.44-1.21-1.52-2.53-2.54-1.85zm3.77.4c-.34 1.27 1.7 2.39 2.73 1.71.42-1.32-1.73-2.17-2.73-1.71zm-42.02 10.75c3.03-1.41 4.71-5.04 6.03-7.97-3.66.57-5.1 4.86-6.03 7.97zm7.28.73c1.238-1.704 2.107-3.636 4.48-3.62.7-1.63 1.19-3.4.09-4.99-3.54 1.43-4.11 5.29-4.57 8.61zm28.06-6.81c-1.22 2.64-1.66 5.57-1.95 8.45l1.98.41c-.31-2.41.4-4.9 3.09-5.45.59-2.08-.89-3.82-3.12-3.41zm6.82 3c-.88 2.3-1.22 4.78-1.33 7.24 2.2-1.01 3.9-2.76 5.45-4.56l-2.41.02c.73-1.49 1.53-2.94 2.27-4.42-1.36.49-2.79.88-3.98 1.72zM79.612 8.792c3.137 2.622.432 7.677 3 11.06 1.69-1.49 1.46-4.4 2.31-6.45l-2.45 2.3c.52-1.72-.01-6.01 2.6-5.48l.34 2.26 3.28-2.52c-2.68 3.69-3.3 8.25-5.21 12.27-3.07-2.9-4.62-7-6.91-10.5 1.37.79 2.68 1.68 4.03 2.5-.28-1.82-.68-3.62-.99-5.44zm19.41-.03c3.31-.43-1.05 3.42-2.5 2.73-.34-1.4 1.51-2.18 2.5-2.73z"/><path d="M125.532 13.862c8.755.533 19.137 2.418 24.28 10.08-3.83-1.63-8.01-2.57-11.53-4.85 1.82.26 3.62.64 5.45.86-4.838-4.323-12.502-3.788-18.2-6.09zm86.36.05c2.9-.26-.11 2.59-1.53 2.12-1.8-.6.58-2.21 1.53-2.12zm-78.09 4.11c.85-.68 3.31-.68 3.36.69-.87.67-3.36.77-3.36-.69zm20.9.8c1.06.16 3.28.45 2.73 2.02-1.29 1.01-2.6-.86-2.73-2.02zm50.97 2.23c1.47-.53 1.91-.1 1.34 1.29-1.44.56-1.88.13-1.34-1.29zm12.13.05c.81-.54 3.24-1.17 3.3.34-1.09 1.11-6.53 2.05-3.3-.34zm-62.1.94c1.39-.34 3.74 1.19 3.56 2.71-1.42.28-3.87-1.08-3.56-2.71zm52.08.79c1.44-.49 1.87-.02 1.27 1.4-1.39.48-1.82.01-1.27-1.4zm-57.65.71c9.96 5.074 21.713 8.526 29.71 16.55-3.65-1.48-6.53-4.37-10.23-5.75-2.48 1.92-6.17 1.39-7.81-1.38 2.11.33 4.22.75 6.35.96-5.865-3.666-12.771-5.722-18.02-10.38zm9.89 1.23c2.47 1.27 6.38 1.89 7.23 4.78-2.59-1.16-5.71-2.22-7.23-4.78zm7.88.28c.96-.69 3.1.4 2.46 1.65-.96.7-3.05-.43-2.46-1.65zm33.16.74c.21-1.34.94-1.65 2.2-.92-.24 1.36-.97 1.67-2.2.92z"/><path d="M182.952 26.402c6.07-.3 12.12.88 18.11-.61-2.32 2.08-5.77 2.15-8.69 2.86.9 1.55 1.77 3.15 2.01 4.95a92 92 0 0 1-1.8-3.23l-2.99.06-.82 2.34.14-2.3c-2.4-.01-4.79.02-7.19-.04.15-2.07 2.83-.73 4.16-1.2l-2.93-2.83zm3.86 1.88c-.04 1.53 2.6 1.1 3.47.52-.09-1.38-2.62-1.18-3.47-.52zm22.09-2.1c1.71.05.79 2.49-.48 2.51-1.58-.04-.6-2.4.48-2.51zm5.63 1.73c2.33-.42 4.69-.64 7.05-.85-1.892 1.307-6.145 4.641-7.05.85zm-118.55.14c1.44-.42 1.97.04 1.59 1.39-1.43.43-1.96-.03-1.59-1.39zm107.71-.07c1.39-.48 1.85-.03 1.36 1.38-1.41.49-1.86.03-1.36-1.38zm23.08-.04c1.22.67 1.15 1.37-.21 2.11-1.18-.72-1.11-1.42.21-2.11zm-177.81 1.24l.35.38-.35-.38zm160.47.26c.8-.66 2.27-.67 3.03.07.64 2.06-3.62 1.86-3.03-.07z"/><path d="M220.672 29.212c1.35-1.2 2.07 1.07 1.09 1.89-1.18 1.4-2.39-1.2-1.09-1.89zm-171.36.35c2.15 1.6 3.45 4.04 4.42 6.48-1.672-1.965-4.645-3.657-4.42-6.48zm124.14.34c1.81-.53 2.44-.06 1.88 1.41-1.84.54-2.47.07-1.88-1.41zm45.3-.06c1.16.63 1.06 1.34-.32 2.12-1.18-.64-1.07-1.35.32-2.12zm3.85 1.37c.92-.64 2.97.42 2.44 1.63-.97.91-3.04-.37-2.44-1.63zm3.64 1.6c2.23.61 4.81 1.04 6.37 2.92-2.26-.55-4.88-.93-6.37-2.92zm-176.52 1.27c.09.09.26.29.35.39l-.35-.39zm172.17.11c1.85.37-.12 2.5-1.28 1.93-1.85-.5.2-2.26 1.28-1.93zm-20.96.93c2.45-1.08.91 2.73-.68 2.51-1.59-.28-.36-2.34.68-2.51zm-15.12.05c2.79.52 4.65 2.93 6.72 4.67-2.48-.98-5.66-2.03-6.72-4.67zm39.85.26c1.43-.1 2.2.71 2.29 2.41l1.31-1.56c.88.15 1.68.54 2.41 1.06l-2.55 1.84 2.69-.09c-.87 1.79-2.32 3.19-4.27 3.71l2-3.29c-2.18-.77-3.25 1.4-4.68 2.57 1.05-2.274 2.343-4.299.8-6.65zm-74.72 3.14c.65-.84 1.46-1.38 2.42-1.63.38 2.79 2 5.15 2.59 7.86-2.27-1.11-2.82-4.58-5.01-6.23zm18.88-2.29c4.46 1.56 8.33 4.32 11.86 7.38-1.19.3-2.38 1.45-3.56 1.32-2.04-3.59-5.89-5.48-8.3-8.7zm51.87 1.11c1.01-.58 2.73.14 2.96 1.32-.45 1.7-3.79.17-2.96-1.32zm-126.29.3c3.234.5 4.627 4.41 8.23 3.52l-3.88 1.85-4.35-5.37zm71.55-.41c3.25-.01 5.06 3.21 5.88 5.95-2.32-1.58-4.31-3.64-5.88-5.95zm49.94.78c1.24-.88 1.96-.67 2.17.63-1.25.91-1.98.7-2.17-.63zm16.9-.3c3.693 3.546 2.592 8.123-2.52 8.96 2.665-2.516 3.919-5.336 2.52-8.96zm-98.92.96c1.18-.36 2.62 1.57 1.79 2.59-1.26.44-2.3-1.59-1.79-2.59zm-46.35.84c4.08 2.03 7.47 5.71 8.13 10.34l-2.81.84c1.338-4.608-1.45-8.406-6.15-9.02l.83-2.16zm-5.85.84l1.66.38c1.63 4.94 4.98 9.14 6.12 14.26-2.98-4.64-5.92-9.41-7.78-14.64zm157.11 1.89c2.84-.05.61 2.91-1.22 1.77-1.85-.53.21-2.03 1.22-1.77zm-112.13.92c1.29-.55 2.11 1.67 1.36 2.53-1.3.59-2.25-1.67-1.36-2.53zm-64.82 11.74c4.17-3.81 7.74-8.4 12.85-11.08 1.864 1.385-2.009 7.461-3.51 8.42-.08-2.03.77-3.89 1.45-5.76-4.38 2.74-7.3 7.11-11.15 10.46l.36-2.04zm24.37-11.51l1.09.03c1.69 2.58 5.35 6.31 3.33 9.27-.75-3.43-2.62-6.36-4.42-9.3zm155.5.49c1.26.63 1.22 1.32-.1 2.05-1.27-.67-1.23-1.35.1-2.05zm-160.29.97c2.871 2.07 1.737 7.724 1.99 11.11-1.84-3.3-1.36-7.44-1.99-11.11zm77.51.12c1.33.62 1.24 1.26-.26 1.91-1.27-.61-1.18-1.25.26-1.91zm-24.19 1.29c1.36.19 1.61.89.74 2.1-1.36-.21-1.61-.91-.74-2.1zm91.89 4.5c1.02-1.68 1.13-4.25 2.96-5.23l-.67 4.76-2.29.47zm-150.85-4.2l.88.36c.2 2.7.16 5.41.06 8.11-2.54-1.79-1.13-5.8-.94-8.47zm52.12.53c.7-1.2 3.31-.23 1.95 1.03-.77.99-3.19.31-1.95-1.03z"/><path d="M133.792 47.002c1.26.66 1.22 1.36-.11 2.09-1.21-.68-1.17-1.37.11-2.09zm27.93.24c1.3.23 1.53.98.71 2.22-1.34-.23-1.58-.97-.71-2.22zm-31.77 1.91l3.18.82c-.27 1.96.05 3.91.33 5.84l-1.28-1.79-1.37 1.51c-1-1.16-1.18-3.63.8-3.83-.77-.73-1.96-1.29-1.66-2.55zm100.41 3.83l2.29-3.28c-.09 2.444-2.814 6.66-5.01 3.59l2.72-.31zm5.48-3.06c1.19.64 1.14 1.38-.16 2.21-1.18-.66-1.13-1.39.16-2.21zm-175.87.69c2.67-.6.85 2.91-.55 3.37-2.72 2.14-.31-2.63.55-3.37zm25.7.5c1.28.26 1.49 1.03.63 2.32-1.27-.27-1.48-1.05-.63-2.32zm49.3-.1c1.4-.35 1.95.16 1.66 1.51-1.41.36-1.97-.14-1.66-1.51zm29.52-.14l2.45.2c.38 3.42 3.85 5.49 3.42 9.19-2.2-.47-1-3.23-2.8-4.14-.62-1.96-1.9-3.58-3.07-5.25zm12.38-.2l2.5 3.06-2.47 1.13-.03-4.19zm-124.67 3.53c1.49-1.24 3.3-1.94 5.19-2.31-.79 2.57-2.41 4.67-4.86 5.82l2.73-3.68-3.06.17zm15.52.78c.96-1.22 1.55-2.79 2.97-3.57-.17 3.04-4.06 4.33-3.73 7.45.15 1.46-1.14 2.29-2.16 3.02l.67-2.98-1.84-.43c1.11-1.44 2.82-2.22 4.09-3.49zm7.2-2.78c1.35.28.48 2.75.73 3.8.45 1.41-1.34 2.09-1.55.52-.36-1.44.1-3.06.82-4.32zm21.54-.35c2.79-.25 5.15 1.26 7.11 3.06-2.5-.62-5.15-1.29-7.11-3.06zm43.36 1.45c3.386-3.512 4.828 1.433 4.76 4.36l-2.41.14c.36-2.01-.2-3.9-2.35-4.5zm102.68-1.2c.75-1.12 3.8-.39 2.37 1.07-.79 1.12-3.79.5-2.37-1.07zm-184.25 8.05c1.09-2.73 1.93-6.13 4.77-7.58l-.19 2.38c-2.2 1.12-2.47 4.05-4.58 5.2zm111.77-7.19c.72-1.24 3.16-.1 2 1.16-.78 1.03-2.94.11-2-1.16zm14.55.33c1.37-.33 1.92.21 1.66 1.6-1.38.32-1.94-.22-1.66-1.6zm-137.83.43c1.63 1.2.95 3.6 1.38 5.35.69 2.4-2.11 3.27-3.31 4.83.22-3-1.85-6.54.23-9.16.65 1.85-.62 5.01 1.6 5.84l.1-6.86zm48.81.78c2.8-.14 5.25 1.43 7.17 3.32-2.27-1.25-5.59-1.29-7.17-3.32zm29.22 3.73l2.82-3.86c1.05 2.2.83 4.99 1.96 7.29l-2.75.17 1.66-1.83c-1.26-.52-2.75-.7-3.69-1.77zm13.94-3.22c1.37.56 1.37 1.22.02 1.97-1.3-.61-1.31-1.27-.02-1.97zm41.01-.05c1.37 1.33 2.29 3.02 2.97 4.8h-2.86l.85-2.72-2.29.29 1.33-2.37zm-109.9 1.23c1.82.23 1.32 5.01-.71 4.35-.58-1.35-.26-3.26.71-4.35zm49.65.64c.86-.56 1.78-.82 2.76-.78l.95 2.68-1.41 1.96c4.908 1.963-.332 4.662.55 7.94l-2.46-1.24c.11 1.96 1 3.73 1.52 5.58-1.2-1.59-1.93-3.46-2.39-5.38.9-.46 1.71-1.04 2.44-1.73-.27-1.36-.42-2.73-.56-4.1l-2.2-1.12c-.28.99-.79 1.82-1.53 2.49-.2-1.24-.51-2.46-1.02-3.61 1.8.02 3.76.47 5.4-.54l-2.05-2.15zm-42.38 1.86c.87-1.13 2.19-1.59 3.56-1.78l.18 3.75c-1.28-.58-2.57-1.17-3.74-1.97zm53.62-1.19l3.62-.44-2.48 3.64-1.14-3.2zm-78.29 7.21c.84-2.82 2.88-5.48 5.24-7.17-.9 2.91-3.18 5.05-5.24 7.17zm30.16 7.08c7.962-30.425 34.403-3.503 5.58 1.01 2.63-5.247 4.165-10.983 11.16-8.58.13-2.58-3.2-1.8-4.81-1.95-3.99-.04-4.45 4.79-7.27 6.66.989-7.142 6.503-9.168 12.84-6.74-6.871-8.857-16.014 4.495-16.63 11.62-1.08.22-2.15.04-3.21-.53.65 1.52 1.67 2.83 2.64 4.16-1.89-.43-3.79-.14-5.66.27l.21 1.84 2.12-.25 1.11 2.65c1.5-1.56 2.31-3.67 4.09-4.98 2.213 4.038 5.638 5.943 9.85 7.37 6.026-2.051 11.613-6.163 10.35-13.32-2.8-.43-.67 3.93-3.28 3.75.63-1.98 1.4-3.9 2.17-5.83 8.276 10.74-9.848 22.784-18.11 12.85-2.44 2.5-1.57 5.83-1.77 8.94l2.29 1.67-.52 1.39-2.23-.87-1.07 2.8c-1.96-.68-3.05-2.4-3.88-4.19 1.7-.03 3.37.3 5.03.63-3.88-2.58-4.3-7.48-5.45-11.59-5.444.947-1.474 7.085 1.28 9.06-1.63.87-3.37 1.66-4.56 3.12l1.17 3.56-1.25-.35-.49-2.52c-1.49.33-2.97.73-4.44 1.13-.03-1.17-.08-2.34-.15-3.51l1.67 2.61c2.33-1.02 3.53-3.32 5.14-5.14-5.35-3.686.974-8.959.26-13.72 4.353 6.496 2.515-6.952 3.06-9.21 1.77 1.76-.22 6.09 2.76 6.19zm12.18-5.87c-1.52.36-.88 2.8.63 1.92 1.53-.39.9-2.83-.63-1.92zm77.93-5.24c-.29-2.89 4.19-3.47 4.98-1.09-1.953-.914-3.385-.099-4.98 1.09zm59.45-1.4l1.44-1.52c-.83 2.32-.1 5.03-1.43 7.16.05-1.98-.45-3.83-1.5-5.5l1.49-.14zm-171.31.04c2.26-.54 2.06 3.82-.16 3.38-1.41-.59-.91-2.71.16-3.38zm71.89 4.5c.61-1.65.4-4.34 2.57-4.75-.29 1.84.26 5.04-2.57 4.75zm10.69-5.04l3.89 4.07-2.24 1.69c-.11-2.03-1-3.87-1.65-5.76zm-107.55 1.25c.71-.84 3.39-.37 1.95.91-1.11 1.68-4.62.6-1.95-.91zm182.9-.06c.92-.27 3.24-.97 3.41.48-1.514 1.391-8.327 1.812-3.41-.48zm21.9-.03c2.06-.04 3.66 1.15 4.86 2.71-1.62-.81-4.57-.42-4.86-2.71zm13.32.14c1.22-.51 3.41 1.1 2.82 2.43-1.27.35-3.25-1.06-2.82-2.43zm-92.22 1.05c1.82-.57 1.9 2.2.19 2.26-1.97.86-1.82-2.08-.19-2.26zm8.92-.17c1.29.66 1.28 1.33-.05 2.02-1.28-.66-1.26-1.34.05-2.02zm-95.03.65c1.78-.83 2.53 2.23 3.78 3.17l-1.46 2.13-2.32-5.3zm117.14.7l2.25.64-.5 2.9c2.78 0 5.4-.94 7.99-1.83l-2.68 2.03.1 3.3-1.93.63c.65-1.08.93-2.23.81-3.44-4.118.282-2.519 6.697-7.66 1.88 1.42.57 2.88 1.12 4.44.72-1.064-3.997-4.223-7.499-5.59-1.44l-1.27-1.17a28.79 28.79 0 0 1 4.04-4.22zm59.88-.07c1.13-.61 2.64 1.23 1.73 2.18-1.14.61-2.66-1.22-1.73-2.18zm-192.95 3.63c1.32-1.29 2.53-2.86 4.35-3.44-1.66 3.1-4.28 5.61-5.8 8.83-3.57-.91-5.35 2.68-7.79 4.49-.07-2.93 2.58-4.57 4.25-6.6l1.99 1.3c1.71-.99 2.81-2.61 3-4.58zm69.93-2.61c1.3.3 1.58 1.08.82 2.34-1.32-.27-1.59-1.05-.82-2.34z"/><path d="M172.742 63.052c1.57.12.63 2.47-.48 2.62-1.6-.07-.65-2.5.48-2.62zm-115.98 4.6c-.56-1.71 3.05-5.16 2.96-1.78-.84.65-1.75 2.17-2.96 1.78zm171.25-3.63c1.24-.86 1.96-.63 2.14.7-1.23.87-1.95.64-2.14-.7zm-177.69 6.86c.25-3.12 3.05-4.82 5.5-6.19-1.07 2.63-3.31 4.51-5.5 6.19zm14.34-5.93c1.19.67 1.14 1.36-.16 2.08-1.25-.71-1.19-1.41.16-2.08zm3.12.17c1.3.76.15 3.34-.51 4.39-1.76-.46-.84-3.72.51-4.39zm5.09.16c1.57-.27 1.21 3.34-.26 3.13-.69-1.08-.61-2.12.26-3.13zm73.9-.07c1.88.5-.53 3.62-1.74 2.13-.91-1.14.64-2.29 1.74-2.13zm28.01-.22c1.68.02.76 2.52-.47 2.54-1.56-.07-.59-2.39.47-2.54zm67.21-.13c1.03-.94 3.7.16 3.19 1.64-1.08.46-3.4-.22-3.19-1.64zm5.37.19c1.95.86 3.92 1.9 5.08 3.77-1.83-1.03-3.98-1.87-5.08-3.77zm-123.79.54c2.84 1.95.755 6.754 3.62 9.26-2.18 2.69-1.66 6.06-.35 9.01l-1.87 1.17c-.18-4.01.54-8.31-1.74-11.88l1.5-2.48-2.04-.02 1.57-.98-.69-4.08zm9.4.25c1.21-.87 1.94-.63 2.16.71-1.22.86-1.94.63-2.16-.71zm72.09.31c1.13-.67 2.88-1.07 4.02-.22.12 1.8-4.19 2.08-4.02.22zm14.52.09c3.256-1.096 5.471.815 4.48 4.13l-2.35.58c3.718-2.94 1.595-4.285-2.13-4.71zm32.75-.64c2.69.72 5.08 2.55 6.34 5.05-2.26-1.49-4.36-3.21-6.34-5.05zm-124.81 2.82c5.246-6.698 4.345 10.3 4.51 13.04l3.93-.27c-2.84-2.82-1.97-7.6 1.48-9.38-1.134 4.68.895 18.387-3.89 20.25-1.01-2.78 1.3-5.72.15-8.59-3 1.63-.62 5.94-2.68 8.35-.47-1.18-1.47-1.54-2.65-1.49 1.96-1.12 2.27-3.08 1.68-5.1-2.73-.01-4.31 2.97-6.81 3.8-.14-3.88 5.07-3.42 7.26-5.67-2.87-1.04-1.18-4.95-.49-7.12l-1.27-1.28c.7-1.02 1.37-2.07 2.01-3.13-.86-.96-2.23-.46-3.33-.55l2.66-2.48-2.56-.38zm5.43 13.67c.18 1.29.91 1.56 2.19.79-.25-1.37-.98-1.63-2.19-.79zm81.92-14.88c3.75.68-2.29 4.33-2.96 1.99.82-.85 1.93-1.43 2.96-1.99zm-80.47.7l3.23 1.88c-.88 1.06-1.94 1.91-3.34 2.12a24.28 24.28 0 0 1 .11-4zm33.26.09c1.94-.21 3.79.45 4.06 2.61l-3.32-1.82-.31 4.24c-1.34-1.42-1.02-3.37-.43-5.03zm-113.08 9.86c4.09-1.83 4.6-6.67 8.03-9.15-.25 1.97-1.67 3.42-2.8 4.95 2.464 2.372.521 5.033.03 7.85l2.91-1.39c-2.16 1.64-1.53 4.3-1.46 6.64-1.02-1.15-.39-2.92-.66-4.31-1.74.78-2.77 2.53-4.16 3.78-2.827-1.882-5.349 1.69-7.99 2.68 2.67-3.9 7.63-4.66 11.39-6.89-.46-2.11-.79-4.25-.58-6.41-2.17 1.17-3.8 3.04-3.53 5.63-1.07.89-2.16 1.76-3.34 2.49 1-1.88 3.51-3.52 2.16-5.87zm189.93-8.84c7.068-.827 4.973 4.367 8.83 7.87a9.77 9.77 0 0 1-1.68 1.72l-2.23-1.26 2.71-.24c-1.75-2.76-6.21-1.02-8.68-3.22 2.26-.02 4.41.7 6.56 1.31l-.1-2.53c-1.83-.05-3.69.04-5.48-.41 1.8-.19 3.6-.26 5.41-.37-.28-2.64-4.4-.44-5.34-2.87zm9.09.22c1.45-.38 3.34 1.73 2.73 3.13-1.37.28-3.33-1.77-2.73-3.13zm-179.81.96c1.6.18.95 4.17-.69 3.65-.53-1.14-.19-2.77.69-3.65zm16.59 3.81c3.86.46 7-1.4 10.17-3.28-1.58 3.33-7.1 6.34-10.17 3.28zm17.37-2.87c1.44-.03 1.28 2.5.57 3.31-1.41 0-1.25-2.5-.57-3.31zm83.89.4c2.4.69 4.79.01 7.11-.68-1.28 3.39-5.96.29-8.41 2.51l1.3-1.83zm17.3-.49c1-.85 3.21-.71 3.54.77-.2 2.11-4.52 1.19-3.54-.77zm12.97.84c1.65-.85 1.77 1.49.3 1.72-.72.82-3.28.23-1.94-.98l1.64-.74zm2.71.55c1.15-.76 3.09.52 2.82 1.87-1.18.94-4.33-.11-2.82-1.87zm8.3-.41c1.66-.52 2.24.03 1.71 1.66-1.62.52-2.19-.03-1.71-1.66zm-168.03 10.82c.76-3.49 1.29-7.31 3.66-10.13-.378 3.356-.986 8.016-3.66 10.13zm106.9-9.96c1.32-.24 1.84.32 1.57 1.7-1.39.28-1.92-.29-1.57-1.7zm-32.99 2.31l3.13-1.34c-.266 3.074 2.115 5.702-.47 8.24 1.06.21 2.14.44 3.01 1.15l-2.73.66 1.64 2.15c-.813 2.074-2.35 2.553-4.41 2.85 1.88-2.87.6-6.66 2.37-9.67l-1.82-.59 1.9-1.45-2.62-2zm73.26-.93c2 .61-.61 3.87-2.05 2.6-.3-1.19 1.27-1.97 2.05-2.6zm41.78-.68c2.78.39 4.75 2.41 4.17 5.29-2.592-.938-2.903-3.174-4.17-5.29zm-203.36 6.52c1.3-2.18 2.9-4.27 5.12-5.57-.374 3.084-2.377 4.471-5.12 5.57zm45.93-3.32c1.49-.51 2.85-1.33 4.27-2.02l-.02 2.17c-5.205-.483-2.472 4.901 0 0l2.03-.93c-1.46 5.196-11.654 7.885-14.61 2.89 2.86.39 7.2 2.96 9.16-.11-3.27-.85-6.89-.6-9.68-2.77 2.98-.04 5.87 1.05 8.85.77zm73.45-1.9c1.4-.33 1.95.19 1.64 1.56-1.4.31-1.94-.21-1.64-1.56zm29.06.4c1.81 1.5-1.53 4.17-3.08 2.62-.19-1.55 2.02-1.99 3.08-2.62zm41.24-.32c1.21-.48 2.78.72 3.97 1.17-.87 1.87-4.86 1.72-3.97-1.17zm-132.04.82l2.04.43.04 4.31-2.17 1.14.09-5.88zm92.31 3.37c.95-1.42 2.49-2.31 3.92-3.2 1.51 1.1 3.11 2.12 4.99 2.44l-1.98 2.2c-.83-1.18-1.37-2.66-2.63-3.44-1.34.86-2.69 1.76-4.3 2zm-158.68-2.08c2.67.27 5.37.29 8.04.04-1.28 1.59-2.2 3.44-3.53 4.98l.5-4.18-4.08 1.85-.93-2.69zm149.22-.05c1.22-.88 1.93-.65 2.15.68-1.23.88-1.94.66-2.15-.68zm36.88-.04c1.8.53-.48 3.61-1.84 2.67-.58-1.15.78-2.43 1.84-2.67zm18.95.22c2.8-.24.66 3.07-1.15 1.89-1.65-.61.18-2.01 1.15-1.89zm-178.19.97c1.35.18 1.57.88.65 2.12-1.35-.21-1.56-.92-.65-2.12zm110.96 1.08l1.97-1.35c3.27 1.35.3 4.51-.45 6.6-1.21-.55-2.73-.78-3.47-2 1.56-.67 5.92-.32 4.52-3.11l-2.57-.14zm-106.73-.04c1.79.79.71 5.1-.14 6.29-.51-1.9-.83-4.5.14-6.29zm120.19-.13c1.22-.88 1.94-.66 2.16.67-1.23.89-1.95.67-2.16-.67zm-148.13.97c2.27.59-1.94 4.07-2.52 2.09.54-1.04 1.38-1.74 2.52-2.09zm173.91.02c1.69.4-.01 2.51-1.16 2-1.78-.47-.01-2.42 1.16-2zm25.05-.16c.94-.87 3.08.39 2.37 1.62-.93.6-3-.39-2.37-1.62zm5.04.34c1.1-.76 2.9.25 2.97 1.56-.58 1.86-4.09.01-2.97-1.56zm7.69-.05c1.39-.39 1.89.11 1.52 1.49-1.39.39-1.9-.11-1.52-1.49zm-96.65.85c.73-.79 3.23-.93 3.15.52-.73.77-3.24.9-3.15-.52zm64.83.34c1.06-1.09 3.76.6 2.31 1.93-1.34 1.35-3.12-.47-2.31-1.93zm-157.04.83c1.26.26 1.43 1.03.54 2.31-1.28-.25-1.45-1.02-.54-2.31zm136.17 1.06c.76-.7 3.11-1.19 3.25.26-.59 1.06-4.53 1.72-3.25-.26zm43.12-.28c1.35-.63 3.18.31 4.19 1.24-.46 1.74-4.32.28-4.19-1.24zm-54.05 1.16c1.51-.77 3.63-.75 5.16-.02-.6 1.33-4.63 1.48-5.16.02zm27.72-.12c1.48-.56 1.93-.15 1.33 1.22-1.5.54-1.94.14-1.33-1.22zm6.03.92l1.43-.72c1.28 1.34 2.27 2.9 2.55 4.77-1.4-1.28-2.7-2.66-3.98-4.05zm26.83-.71c1.39-.34 1.88.17 1.49 1.54-1.4.36-1.9-.16-1.49-1.54zm-188.64 9.57c.84-2.95-1.25-6.79 1.14-9.1-.38 3.05.76 6.4-1.14 9.1zm4.94-8.87c1.71.72.18 3.54-.69 4.53-1.73-.63-.71-3.88.69-4.53zm37.9-.2c1.27.56 1.19 1.22-.25 1.99-1.23-.53-1.15-1.19.25-1.99zm66.02-.11c1.114.895 2.02 2.066 3.58 1.6-.59 1.44-.46 2.97-.25 4.47l-2.92-1.34c.26-1.6.07-3.19-.41-4.73zm4.88.57c1.38-.36 1.86.14 1.44 1.51-1.41.4-1.89-.11-1.44-1.51zm27.81 2.15l6.99-2.45-2.97 2.93a20.85 20.85 0 0 0 1.9 1.86l-8.92 1.09c1.2-2.59 6.37-.23 6.49-3.22l-3.49-.21zm8.45-1.2l3.64-1.31c-1.02 1.81-4.03 1.97-2.89 4.66-2.26-.42-1.53-1.92-.75-3.35z"/><path d="M215.662 89.522c3.09-1.35 6.05-2.97 9.13-4.35l-1.01 1.69c-3.79.46-6.37 3.96-10.24 3.95a12.37 12.37 0 0 1 2.12-1.29zm30.11-4.89c1.66.75 3.23 1.69 4.78 2.66l2.49-1.16 1.55 1.22-2.63.01 1.72 2.76-3.3-1.47c.24 2.79-1.07 5.3-2.85 7.35.17-1.69.46-3.36.82-5.01l-3.86-2.95-2.96 2.77.21-2.62 2.67-1.27c1.22.9 2.16 2.38 3.8 2.56-.44-1.79-1.48-3.31-2.44-4.85zm-160.43 4.26c.73-1.27 1.48-2.62 2.85-3.29l.25 2.18 1.54-1.57c3.628 1.524 6.659.503 10.06-.88.44 2.09-2.26 1.84-3.43 2.63l1.97 2.57c-1.69-.18-3.02.28-3.98 1.39l2.62 1.68c-3.016 2.211-5.22-3.042-7.34-4.61-.87 1.25-.38 4.49-2.4 4.17l.8-3.85-2.94-.42zm7.56.16c-.69 2.25 4.07.38 1.67-.61l-1.67.61zm104.61-.68c2.6-1.04 5.47-1.19 7.98-2.51l-3.08 3.35-4.9-.84zm-97.91-.16c1.36.22 1.62.94.77 2.16-1.33-.22-1.59-.94-.77-2.16zm119.85 2.36c1.87-1.37 4.14-1.91 6.33-2.54l-1.28 2.18c-1.69-.04-3.37.2-5.05.36zm-73.72-1.53c1.21.72 1.14 1.41-.23 2.06-1.2-.76-1.12-1.45.23-2.06zm12.04-.01c1.61-.49 2.19.08 1.72 1.72-1.6.45-2.17-.12-1.72-1.72zm-17.75.88c1.48-.83 4.38.98 4.05 2.65-1.45.39-3.88-1.26-4.05-2.65zm57.7.17c1.4-.97 3.76.54 1.53 1.62-1.38 1.66-4.09-.95-1.53-1.62zm30.13.04c1.54-.16 2.35.99 2.74 2.32l-4.18-.27 1.44-2.05zm-55.45.96c1.38-.18 1.95.39 1.72 1.72-1.4.29-1.98-.28-1.72-1.72zm80.18.96c1.96-.35 4.08-.98 5.85.28-1.78 1.31-4.58 2.17-5.85-.28zm-187.96 10.91c.98-3.81 1.93-7.72 3.83-11.2-.004 3.845-1.523 8.182-3.83 11.2zm35.37-8.47c-1.01-1.44.84-2.22 1.94-2.53.7 1.49 1.67 2.79 2.8 3.98-1.6.65-4.19.52-4.74-1.45zm116.48.4c1.09-2.36 4.09-2.55 6.23-3.47-1.4 1.97-3.98 2.83-6.23 3.47zm-168.87-.53c2.11-1.36 4.71-.38 7-1.25-2.17 1.85-4.53 3.45-6.96 4.93l2.12-3.2-2.16-.48zm158.23.78c3.44.14 6.69-.9 9.72-2.44-1.84 3.34-5.66 3.18-8.88 4.11 1.19 1.94 2.8.79 4.35.06-1.55 2.63-5.15 3.15-7.96 3.54-2.286-4.282-8.842-.124-12.62-2.24 3.52-.18 7.05.02 10.57-.31-.12-2.28-3.19-1.01-4.63-1.62 2.23-1.95 5.33-.94 8-1.26-1.22.95-2.91 1.61-3.39 3.23 1.84.06 3.69-.01 5.54-.15l-.7-2.92zm-196.36-1.22l2.5-.54c-.28 5.91-1.91 11.7-1.98 17.66-4.963-.062 1.932-13.59-1.13-16.23l.61-.89zm43.13 2.62l3.63-2.44-.35 3.59-3.28-1.15zm199.28-2.63c.96-.94 2.81.58 2.22 1.72-.96.84-2.83-.56-2.22-1.72zm-188 1.36c1.54-.25 1.28 3.38-.14 3.22-.69-1.1-.64-2.17.14-3.22zm30.49 4.63c1.16-1.92 1.75-5.29 4.72-4.68l.53 3.55c-.91-.83-1.52-2.24-2.86-2.43l.26 2.38-2.65 1.18zm-4.29-3.82c2.35-1.07 2.58 4.5.13 3.79-.4-1.12-.72-2.67-.13-3.79zm76.33-.22c2.25.91 5.1 1.6 6.13 4.07-2.27-.97-4.35-2.38-6.13-4.07zm45.9 2.05c.87-2.63 4.97-1.27 7.24-1.81-2.27 1.09-4.73 1.71-7.24 1.81zm31.59-.74c1.56.07.86 2.57-.31 2.82-1.46-.14-.65-2.46.31-2.82zm-191.35 1.56c1.866-1.65 2.582 4.006-2.07 3.1.28-1.23 1.77-1.81 2.07-3.1zm48.08-.89c1.44-.58 1.86-.14 1.26 1.31-1.43.59-1.85.15-1.26-1.31zm6.64-.03c1.78.88 3.81 1.72 4.46 3.79-1.58-1-4.52-1.45-4.46-3.79zm-49.56 1.36l1.64-.1c.09 1.94.09 3.89-.08 5.83-.92-1.79-1.22-3.78-1.56-5.73zm48.04-.27c1.34.55 1.31 1.2-.09 1.94-1.29-.55-1.26-1.2.09-1.94z"/><path d="M146.692 99.242c1.33-.05 2.53 1.28 3.57 2.04-.69 2.02-4.47-.22-3.57-2.04zm-66.76.84c1.82-.79 3.03 3.25 1.01 3.46-1.03-.64-1.69-2.38-1.01-3.46zm88.83.16c1.35-.44 1.91.04 1.67 1.46-1.34.42-1.89-.06-1.67-1.46zm25.81-.09c2.25.12 4.58-.29 6.75.5l-.55 2.05c1.95-.39 3.93-.59 5.91-.73-1.25 2.6-4.88 1.65-7.23 1.85-2.44.19-3.6-2.03-4.88-3.67zm52.17.02c1.14-.56 2.74 1.28 1.78 2.29-1.2.65-2.36-1.31-1.78-2.29zm3.91.07c1.47-.33 2.46 1.25 3.43 2.08-.75 1.36-6.16-.32-3.43-2.08zm7.31-.23c.92-.95 2.87.49 2.26 1.65-.95.82-2.88-.48-2.26-1.65zm-164.27 1.19c1.36-.31 1.92.24 1.67 1.65-1.3.31-1.86-.24-1.67-1.65zm-44.78.63l1.57-.01-.96 1.18-.71-.39.1-.78zm11.93.45c1.38.26 1.4 4.04-.06 4.22-.75-1.21-.7-3.03.06-4.22zm6.83-.08c1.28-.63 3.39 1.1 2.47 2.48-1.3 1.27-3.16-1.24-2.47-2.48zm5.98-.21c1.41-.49 1.86-.02 1.38 1.4-1.41.5-1.87.04-1.38-1.4zm14.16-.24c1.75-.95 2.05 1.69.3 1.76-1.78 1.11-1.9-1.53-.3-1.76zm54.15.51c3.36-.59 7.41.82 7.86 4.63l1.19.37c-.07-1.57-.36-3.09-.86-4.58l2.25 1.46c-.05 2.02-1.63 3.51-1.66 5.51-2.62 1.38-4.51 3.66-6.44 5.83l-3.24-.52c.98 3.14 5.02 2.3 7.54 2.02a18.44 18.44 0 0 1-2.03 2.02c-7.168-.97-6.201-1.37-5.9-7.91l2.26.57c-.1-1.42-1.73-1.96-2.54-2.94 3.405-.07 3.892 1.696 3.39 4.72 2.36-1.3 4.41-3.12 6.38-4.93l-2.28-.03c3.136-4.102-3.086-6.35-6.43-4.86l.51-1.36zm-100.31 2.52l5.14-1.56c-2.52 2.31-6.06 3.19-9.33 3.88.05-1.43 1.47-2.18 2.25-3.21l1.94.89zm201.95-1.67c1.46-.51 1.94-.07 1.44 1.31-1.46.48-1.94.04-1.44-1.31zm-179.7 1.07c1.37.04 1.28 2.53.55 3.34-1.47.06-1.23-2.53-.55-3.34zm5.88 2.5l2.46-2.68c.04 2.23 1.61 3.6 3.28 4.82l-5.74-2.14zm36.83-2.92l3.75 1.38-2.6 2.66-1.15-4.04zm143.98.54c1.13-.27 3.34-.11 3.62 1.31-.72 1.81-4.08.33-3.62-1.31zm8.26-.43c.96-.92 2.9.55 2.24 1.71-.98.72-2.89-.52-2.24-1.71zm-179.11 1.22c1.45-.54 1.9-.12 1.37 1.28-1.46.49-1.92.06-1.37-1.28zm63.07-.17c1.41.49 3.78-.41 4.42 1.32-2.44.07-1.05 2.27-.91 3.74-1.26-1.62-2.3-3.4-3.51-5.06zm22.88.42c.87-.8 3.01.18 2.49 1.45-.9.9-3-.2-2.49-1.45zm-112.6.44l2.15.49c-.46 2.28-2.03 4.18-3.8 5.63.656-2.22 2.967-3.733 1.65-6.12zm13.86 4.51c.21-1.86-1.39-5.22 1.71-4.89l-1.28 4.24 2.94-.61-.85 2-2.52-.74zm9.77-4.22c1.42-.54 1.87-.11 1.35 1.3-1.44.54-1.88.11-1.35-1.3zm180.15 0c1.46-.45 2.04-.02 1.75 1.29-1.42.5-2 .07-1.75-1.29zm-220.48 3.92c1.71-2.55 5.44-2.5 8.19-3.23-1.98 2.29-5.36 2.69-8.19 3.23zm138.49-3.27c1.48-.82 2.46 1.86 2.29 2.98-1.35.31-2.86-1.72-2.29-2.98zm75.06.34c.96-.79 2.81.54 2.23 1.71-.95.99-2.83-.58-2.23-1.71zm9.96-.12c1.39-.25 1.94.3 1.64 1.65-1.41.26-1.96-.29-1.64-1.65z"/><path d="M136.632 108.252c1.17-.27 2.78.51 3.18 1.7-.63 1.66-3.79-.29-3.18-1.7zm19.02-.44c3.46.81 7.2 1.55 9.93 3.99-1.51-.31-2.99-.75-4.48-1.16.056 4.316 3.13 6.43 4.4 10.25-1.782-3.821-5.746-4.677-8.31-7.6l4 1.33c-.68-1.62-1.5-3.24-.75-4.99-1.54-.62-3.79-.38-4.79-1.82zm8.2.01c1.38-.28 1.92.26 1.63 1.61-1.4.3-1.95-.24-1.63-1.61zm88.85 5.56c.5-2.01 1.1-4.01 2.11-5.84-.873 3.686 3.64 3.983 3.89 7.38-1.45-1.47-2.61-3.36-4.79-3.8l1.6 2.93-2.58-.71 2.44 3.7c-1.599-.488-2.425-1.737-2.88-3.28-1.52-.41-3.78.34-4.4-1.58l4.61 1.2zm-144.76-4.22c2.48 1.23-2.75 3.14-2.93 1.06.84-.68 1.81-1.03 2.93-1.06zm8.5 3.04c3.94-.64 7.67-2 11.3-3.65l.12 1.04c-3.72 1.93-7.64 3.66-11.91 3.74l.49-1.13zm131.09-2.96c1.38-.63 3.85.4 3.84 2.04-1.25.3-4.19-.37-3.84-2.04zm-230.24.73c3.89 1.48 7.69 4.01 9.14 8.11-2.453-3.506-6.252-5.232-9.14-8.11zm41.57.28c1.12.82 1.4 4.65-.13 5.24-.9-1.52-.59-3.69.13-5.24zm4.87.1c1.53.15 1.82 2.92 1.52 4.17-1.63.04-2.49-2.96-1.52-4.17zm5.74.68l4.39-1.2-3.03 2.04.36 3.05c-.9-1.13-1.43-2.48-1.72-3.89zm26.21-.9c1.36-.55 1.82-.12 1.36 1.28-1.45.57-1.9.14-1.36-1.28zm13.96.95c2.53-.13 4.85.82 6.16 3.1-2.646-.141-5.536-.01-6.16-3.1zm149.11-.15c1.25-.71 3.26 1.1 2.61 2.42-1.2.42-3.07-1.16-2.61-2.42zm-180 1.29c1.16-.63 2.46 1.33 1.74 2.28-1.19.63-2.61-1.29-1.74-2.28zm74.09-.18c.97-.66 3.05.42 2.5 1.67-.97.76-3-.45-2.5-1.67zm14.06-.06c1.42-.18 1.99.38 1.71 1.68-1.43.23-2-.33-1.71-1.68zm-17.64.56c2.72 1.24 5.29 2.92 7.54 4.89-2.818-1.346-4.979-1.519-7.59.33.75-1.05 1.75-1.86 2.76-2.63-1.09-.69-1.99-1.55-2.71-2.59zm22.14.16c1.37.34 2.69.83 4 1.36-.23 1.02.24 2.51-1.07 2.89-.08-1.93-1.68-3.01-2.93-4.25zm-121.63 1.44c1.11.82-.02 3.28-.54 4.38-1.75-.42-1.08-3.92.54-4.38zm114.77-.3c1.8.6 3.53 1.38 5.26 2.15l.37-1.9c1.32.76 1.97 2 1.72 3.54l2.26 1.35-.27 2.98c-2.54-.62-.7-4.32-3.84-3.79l-.08 4.37-2.89-.18 1.47 2.85c-1.12-.6-2.23-1.26-3-2.29l3.81-3.1c-1.32-.87-2.71-1.66-3.78-2.83l2.18-.44.73 1.58.76-.25.02-.8c-1.924-.453-3.31-1.959-4.72-3.24zm-126.94 4.89c1.57-1.82 3.66-3.04 5.88-3.92-1.912 1.449-3.215 4.291-5.88 3.92zm18.24-3.44c1.41.42 1.12 3.16.5 4.27-1.57-.3-1.14-3.18-.5-4.27zm11.92-.23c1.4-.53 1.85-.09 1.36 1.33-1.42.5-1.87.05-1.36-1.33z"/><path d="M94.722 115.112c1.31.28 1.54 1.05.71 2.31-1.29-.3-1.53-1.06-.71-2.31zm-43.08 1.13c1.33.25 1.56.97.69 2.18-1.34-.26-1.57-.99-.69-2.18zm41.05.71c1.29.65 1.28 1.32-.05 2.02-1.27-.66-1.25-1.34.05-2.02zm65.14.12c1.16-.53 2.65.36 3.39 1.26-.23 1.89-3.79.21-3.39-1.26zm-97.17 1.22c1.39-.3 2.31 2.18 1.69 3.24-1.44.34-2.44-2.16-1.69-3.24zm91.71-.42c2.22.79 4.93.99 6.45 3-1.48-.4-2.92-.93-4.37-1.42l.96 3.62c-1.27-1.55-2.93-3.06-3.04-5.2zm-112.87.78l2.02.28c-2.139 2.22-4.024 4.098-7.31 3.35l-.57-2.3 3.79 1.24c.82-.75 1.51-1.6 2.07-2.57zm47.27 1.45c1.44-.53 1.87-.09 1.31 1.32-1.43.51-1.87.07-1.31-1.32zm56.98-.01c1.26.32 1.73 3.18.2 3.39-1.16-.58-1.69-2.87-.2-3.39zm1.57.33c2.44.11 5.11-.99 7.33.36-1.64 2.08-3.85 3.67-6.61 3.64l1.11-2.26c-1.1-.11-1.71-.69-1.83-1.74zm-103.62.66l4.85 1.32c-1.616 1.957-4.065.686-4.85-1.32zm13.04 1.13c1.46.35 1.28 3.15.65 4.27-1.44-.4-1.32-3.15-.65-4.27zm12.95-.27c1.25.67 1.2 1.34-.16 2.02-1.26-.67-1.21-1.34.16-2.02zm26.21.13c1.68-.55 2.22-.02 1.62 1.6-1.63.49-2.18-.04-1.62-1.6zm63.94.81c.96-.88 2.95.51 2.33 1.69-.97.67-2.95-.48-2.33-1.69zm13.87.08c1.54-.5 2.1.1 1.68 1.78-1.57.49-2.13-.1-1.68-1.78zm-137.01 1.02c1.3.62 1.29 1.29-.04 2.03-1.27-.64-1.25-1.32.04-2.03zm93.8.04c1.25-.48 3.32 1.01 2.93 2.38-1.21.35-3.48-.98-2.93-2.38zm-104.13 4.85l3-3.88-.33 3.22 3.66-1.49c-2.361 2.601-5.986 4.63-1.25 7.01a15.06 15.06 0 0 1-4.33-1.46l2.05-3.81-2.8.41zm62.56-2.92c1.37.6 1.35 1.27-.04 2.01-1.28-.57-1.26-1.24.04-2.01zm70.36-.56c1.98.53 3.25 1.94 2.98 4.05l-2.59.7c1.088-1.68.704-3.189-.39-4.75zm94.51.61c1.26-.54 2.48 1.59 1.66 2.57-1.25.45-2.18-1.62-1.66-2.57zm-191.84 1.23c2.24 1.28-2.79 3.38-3.33 1.57.58-1.2 2.15-1.42 3.33-1.57zm2.82-.09c1.63.73-.41 4.05-1.89 3.56-.51-1.32.61-3.1 1.89-3.56zm193-.35c1.32-.18 1.86.42 1.6 1.82-1.37.2-1.9-.41-1.6-1.82zm2.95.35c2.27-.4 1.28 2.96 1.48 4.27-1.84.21-2.52-3.04-1.48-4.27zm-226.9.93c1.44-.53 1.87-.09 1.29 1.33-1.43.49-1.86.05-1.29-1.33zm18.98-.21c1.25-1.03 4.9 1.56 3.07 2.65-1.05-.62-3.28-1.18-3.07-2.65zm-11 1.16c3.93-.66-.47 4.53-1.17 1.11l1.17-1.11zm-4.08 1.96c1.62-.54 2.15 0 1.59 1.62-1.61.55-2.14.01-1.59-1.62zm45.24.07c3.28-.23-.35 2.95-1.92 2.66-2.81.13.9-2.52 1.92-2.66zm76.87 2.27c1.43-1.29 2.81 1.17 1.15 1.93-1.41 1.42-2.77-1.2-1.15-1.93zm-132.2 1.36c1.29.59 1.29 1.28-.01 2.08-1.25-.56-1.25-1.26.01-2.08zm130.18 1.49c1.42 0 1.12 2.59.39 3.36-1.52.03-1.03-2.55-.39-3.36zm59.2 1.61l2.47-1.14c-.46 1.808-.575 3.225 1.14 4.33l-4.49 1.07.88-4.26zm-145.31 1.07c1.27.59 1.24 1.27-.1 2.04-1.25-.6-1.21-1.28.1-2.04zm-27.14 3.98c1.62 1.54 2.8 3.46 4.01 5.32-2.46-.57-2.98-3.37-4.01-5.32zm-6.01.95c1.73-.01 3.84-.5 4.96 1.21l-1.1 1.59c-1.36-.84-2.65-1.77-3.86-2.8zm4.18 4.19c1.41-.65 1.83-.23 1.24 1.24-1.42.63-1.84.22-1.24-1.24zm122.27 4.31l.38.31-.38-.31zm-111.35 1.02c1.4-.31 1.91.21 1.56 1.58-1.39.31-1.91-.21-1.56-1.58zm-25.89 1.72c1.33.63 1.31 1.29-.07 1.97-1.27-.65-1.25-1.31.07-1.97zm127.98.19c1.46-.32 3.09 1.87 2.58 3.23-1.47.37-3.22-1.86-2.58-3.23zm-.69 7.1l.35.31c-.09-.07-.26-.23-.35-.31zm-110.2.56c1.65-1.04 2.1 1.59.45 1.84-1.67 1.01-1.97-1.48-.45-1.84zm80.06 3.99c1.24-.86 1.99-.62 2.26.7-1.26.83-2.01.6-2.26-.7zm-2.16 2.01c.87-.73 3.27-.53 3.41.76-.91.62-3.39.71-3.41-.76zm-.95 4.17c1.18-.53 3.96-.99 4.39.53-1.13.69-3.95.88-4.39-.53zm143.62 11.03c-.42-2.7 2.28-1.92 4-2.1.41 2.43-2.54 1.59-4 2.1zm.39.79c1.64-1.03 2.25 1.63.47 1.77-1.7 1.05-2.05-1.42-.47-1.77z"/></svg>